<?xml version="1.0" encoding="UTF-8"?>
<svg version="1.1" xmlns="http://www.w3.org/2000/svg" width="500" height="500">
<path d="M0 0 C165 0 330 0 500 0 C500 165 500 330 500 500 C335 500 170 500 0 500 C0 335 0 170 0 0 Z " fill="#FEFEFE" transform="translate(0,0)"/>
<path d="M0 0 C1.32 0.33 2.64 0.66 4 1 C4 1.66 4 2.32 4 3 C4.99 3 5.98 3 7 3 C7.44366945 7.66287896 6.00208322 10.42896254 3.8125 14.5 C0.80988147 20.2192734 -1.65601345 25.97998079 -3.859375 32.0625 C-5.05885436 35.15157014 -6.47689393 38.05882966 -8 41 C-7.44650879 41.01458252 -6.89301758 41.02916504 -6.32275391 41.04418945 C13.68630063 41.63342592 13.68630063 41.63342592 22 45 C23.17175781 45.42732422 23.17175781 45.42732422 24.3671875 45.86328125 C26.25357838 46.55191183 28.12839106 47.27215208 30 48 C30 48.66 30 49.32 30 50 C30.639375 50.309375 31.27875 50.61875 31.9375 50.9375 C34 52 34 52 35 53 C35.30859375 55.109375 35.30859375 55.109375 35.4375 57.75 C35.49808594 58.61109375 35.55867188 59.4721875 35.62109375 60.359375 C34.70716346 64.24501572 32.18178271 65.89445407 29 68 C26.65315445 69.3473139 24.36587563 70.57829015 21.9375 71.75 C21.26138672 72.08217529 20.58527344 72.41435059 19.88867188 72.7565918 C-13.13375835 88.73746015 -13.13375835 88.73746015 -21 88 C-21.33 87.01 -21.66 86.02 -22 85 C-25.75844367 94.26879102 -25.75844367 94.26879102 -26 104 C-23.65653729 106.17477572 -23.65653729 106.17477572 -21 108 C-18.6592467 112.01271994 -18.13467324 116.45034382 -19 121 C-21.9400377 125.58299994 -24.92277257 128.05552992 -30 130 C-31.32 130 -32.64 130 -34 130 C-33.98839844 130.72445312 -33.97679687 131.44890625 -33.96484375 132.1953125 C-33.95582031 133.16210938 -33.94679687 134.12890625 -33.9375 135.125 C-33.92589844 136.07632813 -33.91429687 137.02765625 -33.90234375 138.0078125 C-34 141 -34 141 -34.46875 143.71875 C-35.20367334 148.25798238 -35.36280246 152.78523025 -35.5625 157.375 C-35.60568359 158.30183594 -35.64886719 159.22867188 -35.69335938 160.18359375 C-35.79876186 162.45560294 -35.90088606 164.72770925 -36 167 C-33.525 166.01 -33.525 166.01 -31 165 C-30 166 -30 166 -29.9375 169.5625 C-29.958125 170.696875 -29.97875 171.83125 -30 173 C-32.1875 173.8125 -32.1875 173.8125 -35 174 C-38.13559137 171.44777446 -40.70802723 168.87591831 -42 165 C-42.125 161.75 -42.125 161.75 -42 159 C-43.36125 160.175625 -43.36125 160.175625 -44.75 161.375 C-49.98884144 165.67572332 -53.20458878 166.43145468 -60 166 C-63 164 -63 164 -63.43359375 162.01171875 C-63.44007994 158.1524365 -63.37486003 155.65975365 -61.4375 152.25 C-53.73227207 145.13748191 -53.73227207 145.13748191 -48.0625 144.6875 C-46.5465625 144.8421875 -46.5465625 144.8421875 -45 145 C-44.505 146.98 -44.505 146.98 -44 149 C-43.34 149 -42.68 149 -42 149 C-42 143.72 -42 138.44 -42 133 C-43.50691406 133.02320313 -45.01382813 133.04640625 -46.56640625 133.0703125 C-48.56509919 133.08907957 -50.56379752 133.10727876 -52.5625 133.125 C-54.0484668 133.15013672 -54.0484668 133.15013672 -55.56445312 133.17578125 C-62.5403523 133.22213274 -68.04977795 132.9668147 -74 129 C-74.80011761 124.93665764 -74.57325524 121.11921261 -72.6875 117.4375 C-71 116 -71 116 -68 116 C-67.81566406 115.36449219 -67.63132813 114.72898437 -67.44140625 114.07421875 C-66 112 -66 112 -62.77734375 111.20703125 C-61.51019531 111.07683594 -60.24304688 110.94664062 -58.9375 110.8125 C-54.64316266 110.72144161 -54.64316266 110.72144161 -51 109 C-48.64305046 109.09031574 -46.28846418 109.24688128 -43.9375 109.4375 C-42.64714844 109.53933594 -41.35679687 109.64117187 -40.02734375 109.74609375 C-38.52880859 109.87177734 -38.52880859 109.87177734 -37 110 C-36.67 107.69 -36.34 105.38 -36 103 C-36.85078125 102.73316406 -37.7015625 102.46632813 -38.578125 102.19140625 C-48.70924572 98.66401833 -61.92207876 93.00480837 -67.0546875 82.9296875 C-69.27136862 75.18648631 -68.68037724 66.18494028 -65 59 C-60.30665053 53.80166989 -54.480115 51.03769514 -47.96875 48.7265625 C-46.02619068 48.16570978 -46.02619068 48.16570978 -45 47 C-42.66702567 46.95907063 -40.33294775 46.95758277 -38 47 C-41.84700632 49.08379509 -45.90054429 50.49686624 -50 52 C-49.49855469 51.82984375 -48.99710938 51.6596875 -48.48046875 51.484375 C-42.41704942 49.54242809 -36.28589558 48.12664794 -30.0625 46.8125 C-29.22162842 46.63364258 -28.38075684 46.45478516 -27.5144043 46.27050781 C-24.2557629 45.59501209 -21.33964517 45 -18 45 C-17.90203125 44.45472656 -17.8040625 43.90945312 -17.703125 43.34765625 C-17.55359375 42.59355469 -17.4040625 41.83945313 -17.25 41.0625 C-17.11078125 40.33160156 -16.9715625 39.60070312 -16.828125 38.84765625 C-15.87045562 35.55453844 -14.51828707 32.57569683 -13.09667969 29.4597168 C-10.87666963 24.48050903 -8.96334617 19.36991605 -7 14.28515625 C-5.0181708 9.24542653 -2.81118565 4.63092636 0 0 Z " fill="#1B1B1B" transform="translate(280,125)"/>
<path d="M0 0 C1.875 0.1875 1.875 0.1875 4 1 C6.39504637 4.95182651 6.85695384 9.49436638 6 14 C3.0599623 18.58299994 0.07722743 21.05552992 -5 23 C-6.32 23 -7.64 23 -9 23 C-8.98839844 23.72445312 -8.97679687 24.44890625 -8.96484375 25.1953125 C-8.95582031 26.16210938 -8.94679687 27.12890625 -8.9375 28.125 C-8.92589844 29.07632812 -8.91429687 30.02765625 -8.90234375 31.0078125 C-9 34 -9 34 -9.46875 36.71875 C-10.20367334 41.25798238 -10.36280246 45.78523025 -10.5625 50.375 C-10.62727539 51.76525391 -10.62727539 51.76525391 -10.69335938 53.18359375 C-10.79876186 55.45560294 -10.90088606 57.72770925 -11 60 C-9.35 59.34 -7.7 58.68 -6 58 C-5 59 -5 59 -4.9375 62.5625 C-4.958125 63.696875 -4.97875 64.83125 -5 66 C-7.1875 66.8125 -7.1875 66.8125 -10 67 C-13.13559137 64.44777446 -15.70802723 61.87591831 -17 58 C-17.125 54.75 -17.125 54.75 -17 52 C-17.9075 52.78375 -18.815 53.5675 -19.75 54.375 C-24.98884144 58.67572332 -28.20458878 59.43145468 -35 59 C-38 57 -38 57 -38.43359375 55.01171875 C-38.44007994 51.1524365 -38.37486003 48.65975365 -36.4375 45.25 C-28.73227207 38.13748191 -28.73227207 38.13748191 -23.0625 37.6875 C-22.051875 37.790625 -21.04125 37.89375 -20 38 C-19.67 39.32 -19.34 40.64 -19 42 C-18.34 42 -17.68 42 -17 42 C-17 36.72 -17 31.44 -17 26 C-24.26 26 -31.52 26 -39 26 C-39 25.67 -39 25.34 -39 25 C-31.08 24.67 -23.16 24.34 -15 24 C-14.67 23.34 -14.34 22.68 -14 22 C-15.45823212 21.9729957 -16.91660675 21.95360213 -18.375 21.9375 C-19.59316406 21.92009766 -19.59316406 21.92009766 -20.8359375 21.90234375 C-23.04937142 21.85533666 -23.04937142 21.85533666 -25 23 C-27.3329866 23.04022391 -29.66706666 23.04320247 -32 23 C-32 22.34 -32 21.68 -32 21 C-34.31 21 -36.62 21 -39 21 C-39 20.01 -39 19.02 -39 18 C-40.65 18 -42.3 18 -44 18 C-43.7734375 16.16015625 -43.7734375 16.16015625 -43 14 C-33.22696701 6.90148015 -20.6754005 5.5382935 -9 5 C-9.29296875 7.01822917 -9.5859375 9.03645833 -9.87890625 11.0546875 C-10.1684297 13.08140667 -10.1684297 13.08140667 -9 15 C-6.92373687 10.37559575 -5.29977048 5.8991349 -4 1 C-3.01 1.33 -2.02 1.66 -1 2 C-0.67 1.34 -0.34 0.68 0 0 Z " fill="#141414" transform="translate(255,232)"/>
<path d="M0 0 C-0.64049783 6.24918152 -2.4198491 11.92067681 -4.375 17.875 C-4.67921875 18.81730469 -4.9834375 19.75960937 -5.296875 20.73046875 C-6.46158716 24.32913068 -7.63336869 27.92442935 -8.85375977 31.50463867 C-10.2165839 35.50311717 -11.4247323 39.39661486 -12.1875 43.5625 C-12.34605469 44.40941406 -12.50460938 45.25632813 -12.66796875 46.12890625 C-12.83232422 47.05509766 -12.83232422 47.05509766 -13 48 C-24.70584563 43.60452437 -36.70659635 38.15130801 -43.15234375 27.0078125 C-44.61913509 23.53347726 -44.2763438 20.43581436 -43 17 C-36.49852315 8.33741772 -24.280718 4.02243633 -14 2 C-12.72962891 1.72542969 -12.72962891 1.72542969 -11.43359375 1.4453125 C-7.48965989 0.60715479 -4.0564879 0 0 0 Z " fill="#F8F8F8" transform="translate(259,175)"/>
<path d="M0 0 C29.15272416 -0.72251922 29.15272416 -0.72251922 43 7 C42.63508291 9.61056069 42.28350144 10.74749644 40.28515625 12.52734375 C35.48310505 15.57398783 30.64167953 18.32623171 25.51171875 20.78515625 C23.89182608 21.56865021 22.28807099 22.38689157 20.70703125 23.24609375 C15.56963906 26.00841015 10.35146632 28.03107274 4.8125 29.8125 C4.14718262 30.03164062 3.48186523 30.25078125 2.79638672 30.4765625 C-1.57966011 31.82538131 -5.43576011 32.20719636 -10 32 C-9.51799353 27.37273788 -8.52899827 23.57613341 -6.84448242 19.20703125 C-5.4253823 15.49825266 -4.12741857 11.74670624 -2.8125 8 C-2.40354492 6.83791016 -2.40354492 6.83791016 -1.98632812 5.65234375 C-1.32348918 3.76848571 -0.66163914 1.88427976 0 0 Z " fill="#F9F9F9" transform="translate(269,173)"/>
<path d="M0 0 C1.32 0.33 2.64 0.66 4 1 C4 1.66 4 2.32 4 3 C4.99 3 5.98 3 7 3 C7.44366945 7.66287896 6.00208322 10.42896254 3.8125 14.5 C0.80988147 20.2192734 -1.65601345 25.97998079 -3.859375 32.0625 C-5.05885436 35.15157014 -6.47689393 38.05882966 -8 41 C-7.44650879 41.01458252 -6.89301758 41.02916504 -6.32275391 41.04418945 C13.68630063 41.63342592 13.68630063 41.63342592 22 45 C23.17175781 45.42732422 23.17175781 45.42732422 24.3671875 45.86328125 C26.25357838 46.55191183 28.12839106 47.27215208 30 48 C30 48.66 30 49.32 30 50 C30.639375 50.309375 31.27875 50.61875 31.9375 50.9375 C34 52 34 52 35 53 C35.30859375 55.109375 35.30859375 55.109375 35.4375 57.75 C35.49808594 58.61109375 35.55867188 59.4721875 35.62109375 60.359375 C34.70716346 64.24501572 32.18178271 65.89445407 29 68 C26.65315445 69.3473139 24.36587563 70.57829015 21.9375 71.75 C21.26138672 72.08217529 20.58527344 72.41435059 19.88867188 72.7565918 C-13.13375835 88.73746015 -13.13375835 88.73746015 -21 88 C-21 85.69 -21 83.38 -21 81 C-20.20078125 80.75765625 -19.4015625 80.5153125 -18.578125 80.265625 C-15.04847336 79.18850126 -11.5240327 78.0953585 -8 77 C-6.45892578 76.53207031 -6.45892578 76.53207031 -4.88671875 76.0546875 C2.48590675 73.73060158 9.18657547 70.63562179 16 67 C17.00933594 66.46761719 18.01867187 65.93523437 19.05859375 65.38671875 C27.09680391 61.69134957 27.09680391 61.69134957 32 55 C31.175 54.731875 30.35 54.46375 29.5 54.1875 C26 53 26 53 22.4375 51.5 C10.80129976 47.15552749 -2.7177411 47.1510791 -15 46 C-12.125 42.125 -12.125 42.125 -11 41 C-11.49516113 40.58588867 -11.99032227 40.17177734 -12.50048828 39.74511719 C-14 38 -14 38 -13.9921875 34.078125 C-13.07346744 27.92842704 -10.58870232 22.41721326 -8.125 16.75 C-7.67769531 15.6878125 -7.23039062 14.625625 -6.76953125 13.53125 C-4.76062212 8.81416545 -2.71671357 4.35816393 0 0 Z " fill="#0D0D0D" transform="translate(280,125)"/>
<path d="M0 0 C2.5 1.8125 2.5 1.8125 5 4 C5 4.99 5 5.98 5 7 C4.34 7.66 3.68 8.32 3 9 C6.63719605 11.42479736 8.85703482 11.38662577 13.1875 11.625 C14.45980469 11.69976562 15.73210937 11.77453125 17.04296875 11.8515625 C18.01878906 11.90054688 18.99460937 11.94953125 20 12 C20 12.33 20 12.66 20 13 C14.72 13 9.44 13 4 13 C3.67 14.65 3.34 16.3 3 18 C2.23482976 20.63680969 1.44730271 23.25635744 0.625 25.875 C0.41617188 26.55691406 0.20734375 27.23882812 -0.0078125 27.94140625 C-1.41182157 32.43594746 -3.10936232 36.68848914 -5 41 C-5.37308631 42.32276056 -5.73046415 43.65232077 -6 45 C-4.35 45 -2.7 45 -1 45 C-1 45.33 -1 45.66 -1 46 C-2.65 46 -4.3 46 -6 46 C-6.185625 46.7734375 -6.185625 46.7734375 -6.375 47.5625 C-7.18641628 50.72702351 -8.0945913 53.86124985 -9 57 C-9.99 56.505 -9.99 56.505 -11 56 C-11.99 59.3 -12.98 62.6 -14 66 C-15.32 65.67 -16.64 65.34 -18 65 C-20.07828988 56.89466947 -16.85180812 49.14204066 -14.1875 41.5 C-11.19537591 32.73880838 -8.54600674 23.89975809 -6 15 C-21.12945007 17.99413405 -35.58116548 21.33453295 -48 31 C-48.33 30.01 -48.66 29.02 -49 28 C-49.66 28 -50.32 28 -51 28 C-49.87511618 23.21924376 -47.19942461 21.14736559 -43.37109375 18.421875 C-40.06141182 16.43715635 -36.62573596 15.07221286 -33.00390625 13.76171875 C-31.03232658 13.16890048 -31.03232658 13.16890048 -30 12 C-27.66702567 11.95907063 -25.33294775 11.95758277 -23 12 C-26.84700632 14.08379509 -30.90054429 15.49686624 -35 17 C-34.49855469 16.82984375 -33.99710938 16.6596875 -33.48046875 16.484375 C-27.41704942 14.54242809 -21.28589558 13.12664794 -15.0625 11.8125 C-14.22162842 11.63364258 -13.38075684 11.45478516 -12.5144043 11.27050781 C-9.2557629 10.59501209 -6.33964517 10 -3 10 C-2.86722656 9.36191406 -2.73445313 8.72382813 -2.59765625 8.06640625 C-2.42105469 7.24011719 -2.24445313 6.41382813 -2.0625 5.5625 C-1.88847656 4.73878906 -1.71445312 3.91507813 -1.53515625 3.06640625 C-1 1 -1 1 0 0 Z " fill="#101010" transform="translate(265,160)"/>
<path d="M0 0 C1.258125 -0.04125 2.51625 -0.0825 3.8125 -0.125 C4.52019531 -0.14820313 5.22789062 -0.17140625 5.95703125 -0.1953125 C8 0 8 0 11 2 C11.33 1.67 11.66 1.34 12 1 C14.33297433 0.95907063 16.66705225 0.95758277 19 1 C17.80857478 3.58142131 16.55148169 5.5894812 14.8125 7.875 C12.78551975 10.81335623 12.78551975 10.81335623 12.875 13.875 C14.65055511 18.80709754 17.53519686 23.6165581 22.19921875 26.234375 C22.79347656 26.48703125 23.38773437 26.7396875 24 27 C24 28.32 24 29.64 24 31 C21.69 30.67 19.38 30.34 17 30 C17 30.66 17 31.32 17 32 C17.66 32 18.32 32 19 32 C20.6442351 36.93270529 19.18615592 39.54024193 17 44 C16.67 43.34 16.34 42.68 16 42 C15.01 41.67 14.02 41.34 13 41 C13.33 43.97 13.66 46.94 14 50 C12.68 50 11.36 50 10 50 C10 47.03 10 44.06 10 41 C9.195625 41.020625 8.39125 41.04125 7.5625 41.0625 C5 41 5 41 4 40 C3.67 43.3 3.34 46.6 3 50 C2.34 50 1.68 50 1 50 C0.67 45.38 0.34 40.76 0 36 C1.98 35.505 1.98 35.505 4 35 C4.33 34.34 4.66 33.68 5 33 C5.66 34.32 6.32 35.64 7 37 C7 36.34 7 35.68 7 35 C7 34.34 7 33.68 7 33 C5.02 32.67 3.04 32.34 1 32 C-0.13917218 28.58248347 -0.11338481 25.96512063 -0.09765625 22.36328125 C-0.09443359 21.06455078 -0.09121094 19.76582031 -0.08789062 18.42773438 C-0.07953531 17.05598892 -0.07107037 15.68424413 -0.0625 14.3125 C-0.05748335 12.92903805 -0.05292073 11.54557437 -0.04882812 10.16210938 C-0.03702529 6.77469605 -0.02056019 3.38736967 0 0 Z " fill="#D7D7D7" transform="translate(280,311)"/>
<path d="M0 0 C0.33 0 0.66 0 1 0 C0.67 11.88 0.34 23.76 0 36 C1.65 35.34 3.3 34.68 5 34 C6 35 6 35 6.0625 38.5625 C6.041875 39.696875 6.02125 40.83125 6 42 C3.8125 42.8125 3.8125 42.8125 1 43 C-2.13559137 40.44777446 -4.70802723 37.87591831 -6 34 C-6.125 30.75 -6.125 30.75 -6 28 C-6.9075 28.78375 -7.815 29.5675 -8.75 30.375 C-13.98884144 34.67572332 -17.20458878 35.43145468 -24 35 C-27 33 -27 33 -27.43359375 31.01171875 C-27.44007994 27.1524365 -27.37486003 24.65975365 -25.4375 21.25 C-17.73227207 14.13748191 -17.73227207 14.13748191 -12.0625 13.6875 C-11.051875 13.790625 -10.04125 13.89375 -9 14 C-8.67 15.32 -8.34 16.64 -8 18 C-7.34 18 -6.68 18 -6 18 C-6 14.04 -6 10.08 -6 6 C-5.34 7.32 -4.68 8.64 -4 10 C-3.67 8.68 -3.34 7.36 -3 6 C-2.34 6 -1.68 6 -1 6 C-0.67 4.02 -0.34 2.04 0 0 Z " fill="#090909" transform="translate(244,256)"/>
<path d="M0 0 C1.32 0 2.64 0 4 0 C4 0.66 4 1.32 4 2 C4.639375 2.309375 5.27875 2.61875 5.9375 2.9375 C8 4 8 4 9 5 C9.30859375 7.109375 9.30859375 7.109375 9.4375 9.75 C9.49808594 10.61109375 9.55867188 11.4721875 9.62109375 12.359375 C8.70716346 16.24501572 6.18178271 17.89445407 3 20 C0.65315445 21.3473139 -1.63412437 22.57829015 -4.0625 23.75 C-4.73861328 24.08217529 -5.41472656 24.41435059 -6.11132812 24.7565918 C-39.13375835 40.73746015 -39.13375835 40.73746015 -47 40 C-47 37.69 -47 35.38 -47 33 C-46.20078125 32.75765625 -45.4015625 32.5153125 -44.578125 32.265625 C-41.04847336 31.18850126 -37.5240327 30.0953585 -34 29 C-32.97261719 28.68804687 -31.94523437 28.37609375 -30.88671875 28.0546875 C-23.51409325 25.73060158 -16.81342453 22.63562179 -10 19 C-8.99066406 18.46761719 -7.98132813 17.93523437 -6.94140625 17.38671875 C1.09680391 13.69134957 1.09680391 13.69134957 6 7 C5.05125 6.71125 4.1025 6.4225 3.125 6.125 C0 5 0 5 -2 3 C-1.34 2.01 -0.68 1.02 0 0 Z " fill="#151515" transform="translate(306,173)"/>
<path d="M0 0 C0.66 0 1.32 0 2 0 C3.13515793 3.02708782 2.90599544 4.4700228 2.25 7.75 C1.63875545 12.13466093 2.83256939 14.57930472 5.3671875 18.125 C11.62152014 25.30700877 20.93066043 29.866843 29.80078125 32.984375 C30.52652344 33.31953125 31.25226563 33.6546875 32 34 C32.33 34.99 32.66 35.98 33 37 C35.01508358 37.73323796 35.01508358 37.73323796 37 38 C37.185625 36.1746875 37.185625 36.1746875 37.375 34.3125 C37.78891306 30.93520941 38.54573451 28.10243305 40 25 C40.33 25 40.66 25 41 25 C40.90460938 26.12019531 40.80921875 27.24039063 40.7109375 28.39453125 C40.59838115 29.8671435 40.4864337 31.33980237 40.375 32.8125 C40.31054688 33.55048828 40.24609375 34.28847656 40.1796875 35.04882812 C39.82029739 39.80558496 39.82029739 39.80558496 42 44 C41.34 44.99 40.68 45.98 40 47 C39.01 46.67 38.02 46.34 37 46 C36.89042969 46.60328125 36.78085938 47.2065625 36.66796875 47.828125 C36.43013672 49.02695313 36.43013672 49.02695313 36.1875 50.25 C36.03667969 51.03890625 35.88585937 51.8278125 35.73046875 52.640625 C34.91980019 55.25904109 33.74878103 56.91104512 32 59 C32.31045732 57.0830014 32.62344671 55.16641277 32.9375 53.25 C33.11152344 52.18265625 33.28554687 51.1153125 33.46484375 50.015625 C33.88704171 47.63652407 34.37202884 45.33084789 35 43 C34.34 43 33.68 43 33 43 C33 42.34 33 41.68 33 41 C32.00033203 40.86271484 32.00033203 40.86271484 30.98046875 40.72265625 C27.16301031 39.79706017 23.80451213 38.18887331 20.3125 36.4375 C19.60786621 36.0854248 18.90323242 35.73334961 18.17724609 35.37060547 C11.33589073 31.84114851 5.44655709 27.44655709 0 22 C-2.38861741 14.30334389 -3.07494518 7.68736295 0 0 Z " fill="#0E0E0E" transform="translate(214,188)"/>
<path d="M0 0 C-0.66 3.96 -1.32 7.92 -2 12 C-2.99 11.67 -3.98 11.34 -5 11 C-5.33 11.66 -5.66 12.32 -6 13 C-8.28515625 13.4140625 -8.28515625 13.4140625 -11.0625 13.625 C-11.98160156 13.69976562 -12.90070313 13.77453125 -13.84765625 13.8515625 C-14.91306641 13.92503906 -14.91306641 13.92503906 -16 14 C-16 14.66 -16 15.32 -16 16 C-20.62 16 -25.24 16 -30 16 C-30 15.01 -30 14.02 -30 13 C-31.65 13 -33.3 13 -35 13 C-34.7734375 11.16015625 -34.7734375 11.16015625 -34 9 C-24.52890264 2.12078731 -11.38738669 0 0 0 Z " fill="#F1F1F1" transform="translate(246,237)"/>
<path d="M0 0 C12 0 12 0 15.25 1.6875 C17 4 17 4 17.5 6.5 C16.91951005 9.40244975 16.0447229 10.87663391 14 13 C13.34 13 12.68 13 12 13 C14.0358538 16.99340554 15.7141053 20.01394827 19.25 22.8125 C20.1575 23.534375 21.065 24.25625 22 25 C22 25.66 22 26.32 22 27 C19.375 27.5 19.375 27.5 16 27 C14.19666665 25.14477216 12.8202851 23.19927416 11.39453125 21.04296875 C10.09404568 18.96547026 10.09404568 18.96547026 8.32421875 17.48828125 C7 16 7 16 7 12 C8.98 11.34 10.96 10.68 13 10 C12.34 8.02 11.68 6.04 11 4 C8.03 3.505 8.03 3.505 5 3 C5.33 10.92 5.66 18.84 6 27 C4.02 27 2.04 27 0 27 C0 18.09 0 9.18 0 0 Z " fill="#353535" transform="translate(226,312)"/>
<path d="M0 0 C4.95 0 9.9 0 15 0 C15 1.32 15 2.64 15 4 C11.7 3.67 8.4 3.34 5 3 C5 5.64 5 8.28 5 11 C7.31 11 9.62 11 12 11 C12 11.99 12 12.98 12 14 C9.69 14 7.38 14 5 14 C5 17.3 5 20.6 5 24 C9.29 23.34 13.58 22.68 18 22 C17.01 24.475 17.01 24.475 16 27 C10.72 27 5.44 27 0 27 C0 18.09 0 9.18 0 0 Z " fill="#0A0A0A" transform="translate(316,312)"/>
<path d="M0 0 C1.61648437 0.04060547 1.61648437 0.04060547 3.265625 0.08203125 C4.08546875 0.11683594 4.9053125 0.15164063 5.75 0.1875 C5.75 1.5075 5.75 2.8275 5.75 4.1875 C2.45 4.1875 -0.85 4.1875 -4.25 4.1875 C-4.58 5.8375 -4.91 7.4875 -5.25 9.1875 C-4.59 9.414375 -3.93 9.64125 -3.25 9.875 C0.69659996 11.60163748 4.48910695 13.3263799 7.75 16.1875 C8.5625 19.25 8.5625 19.25 7.75 22.1875 C4.40332363 25.44610594 2.05423185 27.13919512 -2.625 27.3125 C-5.43022266 27.21576818 -7.61035216 27.03218731 -10.25 26.1875 C-9.92 24.8675 -9.59 23.5475 -9.25 22.1875 C-8.26 22.5175 -7.27 22.8475 -6.25 23.1875 C-4.85560336 23.25415376 -3.45830125 23.27288199 -2.0625 23.25 C-0.804375 23.229375 0.45375 23.20875 1.75 23.1875 C2.76111093 20.13836772 2.76111093 20.13836772 1.75 17.1875 C0.31634471 16.50779888 -1.14761327 15.89102361 -2.625 15.3125 C-8.70837426 12.68185167 -8.70837426 12.68185167 -10.25 9.1875 C-10.6875 6.125 -10.6875 6.125 -10.25 3.1875 C-7.04323365 -0.08814677 -4.45590726 -0.14530132 0 0 Z " fill="#171717" transform="translate(173.25,311.8125)"/>
<path d="M0 0 C4.66666667 0 9.33333333 0 14 0 C14.33 0.66 14.66 1.32 15 2 C13.68 2 12.36 2 11 2 C10.67 2.66 10.34 3.32 10 4 C11.093125 4.12375 12.18625 4.2475 13.3125 4.375 C17 5 17 5 20 7 C20.33 4.69 20.66 2.38 21 0 C21.66 0 22.32 0 23 0 C23.33 2.31 23.66 4.62 24 7 C24.66 7 25.32 7 26 7 C26 7.66 26 8.32 26 9 C25.34 9 24.68 9 24 9 C24 9.66 24 10.32 24 11 C22.37512529 11.16788373 20.75009558 11.33426787 19.125 11.5 C17.76761719 11.63921875 17.76761719 11.63921875 16.3828125 11.78125 C14 12 14 12 12 12 C12 12.66 12 13.32 12 14 C11.01 14 10.02 14 9 14 C9 13.01 9 12.02 9 11 C8.0206121 9.97980427 7.02104551 8.97850195 6 8 C6 7.34 6 6.68 6 6 C2.90041737 6.69211609 2.90041737 6.69211609 1.625 9.0625 C0 11 0 11 -2.5625 11.375 C-5 11 -5 11 -7 9 C-7.26991906 6.31160615 -7.08737357 3.70858064 -7 1 C-6.67 1 -6.34 1 -6 1 C-5.67 3.64 -5.34 6.28 -5 9 C-3.35 9 -1.7 9 0 9 C0 6.03 0 3.06 0 0 Z " fill="#A8A8A8" transform="translate(185,351)"/>
<path d="M0 0 C0.8353125 0.804375 0.8353125 0.804375 1.6875 1.625 C2.450625 2.07875 3.21375 2.5325 4 3 C6.60470331 2.32481546 6.60470331 2.32481546 9 1 C9.99 0.67 10.98 0.34 12 0 C12 0.66 12 1.32 12 2 C12.99 1.67 13.98 1.34 15 1 C15 1.99 15 2.98 15 4 C17.97 4 20.94 4 24 4 C24 4.66 24 5.32 24 6 C22.02 6 20.04 6 18 6 C18 6.99 18 7.98 18 9 C19.65 9 21.3 9 23 9 C23 9.33 23 9.66 23 10 C21.35 10 19.7 10 18 10 C18 11.32 18 12.64 18 14 C19.98 14 21.96 14 24 14 C24 14.66 24 15.32 24 16 C21.36 16 18.72 16 16 16 C16 12.37 16 8.74 16 5 C13.36 5.33 10.72 5.66 8 6 C8 8.97 8 11.94 8 15 C7.67 15 7.34 15 7 15 C7 12.03 7 9.06 7 6 C3.37114676 5.84850702 3.37114676 5.84850702 0 7 C-0.90343684 8.88263881 -0.90343684 8.88263881 -1.625 11.0625 C-1.88539063 11.79597656 -2.14578125 12.52945312 -2.4140625 13.28515625 C-2.60742188 13.85105469 -2.80078125 14.41695313 -3 15 C-5.31 15 -7.62 15 -10 15 C-11.60725635 11.78548731 -11.05748185 8.56387464 -11 5 C-10.34 5 -9.68 5 -9 5 C-8.67 7.64 -8.34 10.28 -8 13 C-6.68 12.67 -5.36 12.34 -4 12 C-3.67 9.36 -3.34 6.72 -3 4 C-2.34 4 -1.68 4 -1 4 C-0.67 2.68 -0.34 1.36 0 0 Z " fill="#A3A3A3" transform="translate(312,345)"/>
<path d="M0 0 C0.66 0 1.32 0 2 0 C3.13515793 3.02708782 2.90599544 4.4700228 2.25 7.75 C1.61641868 12.16861257 2.93989961 14.58874046 5.453125 18.16796875 C7.72611516 20.85996972 10.17514783 22.89778443 13 25 C12.01 25.99 11.02 26.98 10 28 C11.65 28.33 13.3 28.66 15 29 C15.33 30.32 15.66 31.64 16 33 C19.465 33.495 19.465 33.495 23 34 C23.33 34.99 23.66 35.98 24 37 C14.57911472 34.52894812 6.48880133 29.32699838 0 22 C-2.52969921 14.41090236 -3.03551939 7.58879847 0 0 Z " fill="#1E1E1E" transform="translate(214,188)"/>
<path d="M0 0 C0.66 0 1.32 0 2 0 C1.52363602 2.3818199 1.04664482 4.76348826 0.56640625 7.14453125 C0.20786908 8.9520531 -0.13987138 10.76177886 -0.47265625 12.57421875 C-3.20608108 27.20608108 -3.20608108 27.20608108 -6 30 C-6.32735342 31.8063957 -6.6111648 33.62074006 -6.875 35.4375 C-7.77731667 41.14533652 -9.18186769 46.52136131 -11 52 C-12.32 51.67 -13.64 51.34 -15 51 C-13.73090816 42.82084095 -11.6784567 35.07358957 -9.1875 27.1875 C-8.83365234 26.05199707 -8.47980469 24.91649414 -8.11523438 23.74658203 C-5.60611293 15.75646988 -2.9626285 7.83387344 0 0 Z " fill="#C3C3C3" transform="translate(262,174)"/>
<path d="M0 0 C6.6 0 13.2 0 20 0 C20 0.99 20 1.98 20 3 C17.36 3 14.72 3 12 3 C12.33 10.92 12.66 18.84 13 27 C11.02 27 9.04 27 7 27 C7.33 19.08 7.66 11.16 8 3 C3.545 3.495 3.545 3.495 -1 4 C-0.67 2.68 -0.34 1.36 0 0 Z " fill="#131313" transform="translate(193,312)"/>
<path d="M0 0 C-0.66 0 -1.32 0 -2 0 C-2 0.66 -2 1.32 -2 2 C0.31 1.34 2.62 0.68 5 0 C5.33 0.66 5.66 1.32 6 2 C8.01669827 3.13350534 8.01669827 3.13350534 10 4 C8.68 4 7.36 4 6 4 C6.01160156 4.72445312 6.02320313 5.44890625 6.03515625 6.1953125 C6.08231311 11.24783323 6.07377564 16.03378767 5 21 C4.67 21 4.34 21 4 21 C4 16.71 4 12.42 4 8 C3.67 8.99 3.34 9.98 3 11 C2.34 11 1.68 11 1 11 C0.67 15.62 0.34 20.24 0 25 C-0.33 25 -0.66 25 -1 25 C-1.33 19.06 -1.66 13.12 -2 7 C-9.26 7 -16.52 7 -24 7 C-24 6.67 -24 6.34 -24 6 C-16.08 5.67 -8.16 5.34 0 5 C0.33 4.34 0.66 3.68 1 3 C-0.45823212 2.9729957 -1.91660675 2.95360213 -3.375 2.9375 C-4.59316406 2.92009766 -4.59316406 2.92009766 -5.8359375 2.90234375 C-8.04937142 2.85533666 -8.04937142 2.85533666 -10 4 C-12.3329866 4.04022391 -14.66706666 4.04320247 -17 4 C-17 3.34 -17 2.68 -17 2 C-14.69 2 -12.38 2 -10 2 C-10 1.34 -10 0.68 -10 0 C-6.33694766 -0.74926071 -3.57644848 -1.2380014 0 0 Z M3 2 C3.33 2.66 3.66 3.32 4 4 C4.33 3.34 4.66 2.68 5 2 C4.34 2 3.68 2 3 2 Z " fill="#3E3E3E" transform="translate(240,251)"/>
<path d="M0 0 C1.134375 0.020625 2.26875 0.04125 3.4375 0.0625 C-0.40950632 2.14629509 -4.46304429 3.55936624 -8.5625 5.0625 C-8.35625 5.92875 -8.15 6.795 -7.9375 7.6875 C-8.5625 11.0625 -8.5625 11.0625 -10.68359375 12.7265625 C-13.27382105 14.25287931 -15.89860801 15.66972497 -18.5625 17.0625 C-19.5525 17.7225 -20.5425 18.3825 -21.5625 19.0625 C-21.8925 18.0725 -22.2225 17.0825 -22.5625 16.0625 C-23.2225 16.0625 -23.8825 16.0625 -24.5625 16.0625 C-23.43761618 11.28174376 -20.76192461 9.20986559 -16.93359375 6.484375 C-13.62391182 4.49965635 -10.18823596 3.13471286 -6.56640625 1.82421875 C-1.85282258 0.03250566 -1.85282258 0.03250566 0 0 Z " fill="#1A1A1A" transform="translate(238.5625,171.9375)"/>
<path d="M0 0 C1.98 0 3.96 0 6 0 C4.80857478 2.58142131 3.55148169 4.5894812 1.8125 6.875 C-0.21448025 9.81335623 -0.21448025 9.81335623 -0.125 12.875 C1.89583589 18.48843302 5.74653661 22.88662073 10 27 C7.30078125 27.32421875 7.30078125 27.32421875 4 27 C1.48046875 24.76953125 1.48046875 24.76953125 -0.8125 21.8125 C-1.96685547 20.36810547 -1.96685547 20.36810547 -3.14453125 18.89453125 C-4.97073441 16.04565432 -5.92304313 14.36961151 -6 11 C-4.78515625 8.8671875 -4.78515625 8.8671875 -3.0625 6.875 C-0.38505604 3.90976918 -0.38505604 3.90976918 0 0 Z " fill="#171717" transform="translate(293,312)"/>
<path d="M0 0 C0.66 0.99 1.32 1.98 2 3 C1.67 3.598125 1.34 4.19625 1 4.8125 C-0.59866253 8.30957429 0.04681717 11.37790524 1 15 C1.66 15.33 2.32 15.66 3 16 C2.33989524 18.84550012 1.48275034 21.52325999 0.4375 24.25 C0.16808594 24.95640625 -0.10132813 25.6628125 -0.37890625 26.390625 C-0.58386719 26.92171875 -0.78882813 27.4528125 -1 28 C-1.391875 27.525625 -1.78375 27.05125 -2.1875 26.5625 C-4.40808374 24.64820367 -6.13375709 24.38733012 -9 24 C-6.80148049 15.63019764 -3.50929804 7.88172441 0 0 Z " fill="#141414" transform="translate(276,132)"/>
<path d="M0 0 C3.3 0 6.6 0 10 0 C10 0.33 10 0.66 10 1 C8.02 1 6.04 1 4 1 C4.33 9.25 4.66 17.5 5 26 C3.02 26 1.04 26 -1 26 C-0.67 17.42 -0.34 8.84 0 0 Z " fill="#121212" transform="translate(227,313)"/>
<path d="M0 0 C1.98 0 3.96 0 6 0 C5.67 8.58 5.34 17.16 5 26 C3.68 26 2.36 26 1 26 C0.67 17.42 0.34 8.84 0 0 Z " fill="#060606" transform="translate(281,312)"/>
<path d="M0 0 C1.98 0 3.96 0 6 0 C5.67 8.58 5.34 17.16 5 26 C3.68 26 2.36 26 1 26 C0.67 17.42 0.34 8.84 0 0 Z " fill="#080808" transform="translate(259,312)"/>
<path d="M0 0 C3.7566563 0.40612501 6.39396169 1.20092181 9 4 C9.5625 6.9375 9.5625 6.9375 9 10 C5.65332363 13.25860594 3.30423185 14.95169512 -1.375 15.125 C-4.18022266 15.02826818 -6.36035216 14.84468731 -9 14 C-8.67 12.68 -8.34 11.36 -8 10 C-7.01 10.33 -6.02 10.66 -5 11 C-3.60560336 11.06665376 -2.20830125 11.08538199 -0.8125 11.0625 C0.445625 11.041875 1.70375 11.02125 3 11 C3.98726527 8.33438378 4.0275526 7.09873015 3.25 4.3125 C2.16501727 1.67489954 2.16501727 1.67489954 -1 1 C-0.67 0.67 -0.34 0.34 0 0 Z " fill="#121212" transform="translate(172,324)"/>
<path d="M0 0 C1.32 0 2.64 0 4 0 C3.6640625 2.83203125 3.6640625 2.83203125 2 6 C-1.41083996 7.48797695 -4.97313383 8.04736046 -8.625 8.6875 C-10.57656122 9.06101072 -12.52711297 9.43983873 -14.4765625 9.82421875 C-15.41532227 10.00645996 -16.35408203 10.18870117 -17.32128906 10.37646484 C-19.84670559 10.964317 -22.12250901 11.73841868 -24.5234375 12.70703125 C-28 14 -28 14 -31 13 C-28.03 11.68 -25.06 10.36 -22 9 C-22.33 8.34 -22.66 7.68 -23 7 C-20.29273634 6.4935186 -17.58442876 5.994649 -14.875 5.5 C-14.11445313 5.35691406 -13.35390625 5.21382812 -12.5703125 5.06640625 C-8.31957086 4.29687544 -4.34140803 3.83355624 0 4 C0 2.68 0 1.36 0 0 Z " fill="#9E9E9E" transform="translate(260,164)"/>
<path d="M0 0 C0.33 0 0.66 0 1 0 C1 2.31 1 4.62 1 7 C3.31 7 5.62 7 8 7 C8.38281159 12.23175837 7.21854707 15.37802694 5 20 C5.99 19.01 6.98 18.02 8 17 C8.66 17.33 9.32 17.66 10 18 C9.34 18.99 8.68 19.98 8 21 C6.0546875 21.29296875 6.0546875 21.29296875 3.875 21.1875 C2.59625 21.125625 1.3175 21.06375 0 21 C0 17.7 0 14.4 0 11 C2.31 11 4.62 11 7 11 C7 10.01 7 9.02 7 8 C4.69 8 2.38 8 0 8 C0 5.36 0 2.72 0 0 Z " fill="#D1D1D1" transform="translate(321,315)"/>
<path d="M0 0 C3.63 1.65 7.26 3.3 11 5 C10.67 7.31 10.34 9.62 10 12 C5.45194365 12.17835515 2.1205746 11.99785435 -2 10 C-0.68 9.01 0.64 8.02 2 7 C1.67 5.68 1.34 4.36 1 3 C0.34 3 -0.32 3 -1 3 C-0.67 2.01 -0.34 1.02 0 0 Z " fill="#EFEFEF" transform="translate(233,223)"/>
<path d="M0 0 C1.65 0.99 3.3 1.98 5 3 C4.125 10.625 4.125 10.625 3 14 C3.66 14.33 4.32 14.66 5 15 C4.01 15 3.02 15 2 15 C2.33 16.32 2.66 17.64 3 19 C0.69 18.67 -1.62 18.34 -4 18 C-1.125 14.125 -1.125 14.125 0 13 C-0.515625 12.649375 -1.03125 12.29875 -1.5625 11.9375 C-3 10 -3 10 -2.6875 6.3125 C-2.460625 5.219375 -2.23375 4.12625 -2 3 C-1.34 3 -0.68 3 0 3 C0 2.01 0 1.02 0 0 Z " fill="#050505" transform="translate(269,153)"/>
<path d="M0 0 C3.34163899 1.38274717 5.25766748 2.79044009 7 6 C7.0625 8.5625 7.0625 8.5625 6 11 C1.13793103 14 1.13793103 14 -2 14 C-1.85970581 11.8537974 -1.71261836 9.70803782 -1.5625 7.5625 C-1.48128906 6.36753906 -1.40007812 5.17257813 -1.31640625 3.94140625 C-1 1 -1 1 0 0 Z " fill="#DEDEDE" transform="translate(251,233)"/>
<path d="M0 0 C2.97 0 5.94 0 9 0 C9 0.66 9 1.32 9 2 C9.54527344 1.84402344 10.09054688 1.68804687 10.65234375 1.52734375 C16.50365352 0.01700567 21.03574987 0.05329363 27 1 C26.67 1.99 26.34 2.98 26 4 C17.75 4 9.5 4 1 4 C0.67 2.68 0.34 1.36 0 0 Z " fill="#121212" transform="translate(214,253)"/>
<path d="M0 0 C0.99 0 1.98 0 3 0 C3 0.66 3 1.32 3 2 C3.66 2 4.32 2 5 2 C4.36934845 7.7809725 3.34844868 13.3443706 2 19 C-0.56687367 15.1496895 0.16711276 13.41430237 1 9 C-1.88415883 7.55792059 -4.41721528 7.90605113 -7.625 7.9375 C-9.40777344 7.95103516 -9.40777344 7.95103516 -11.2265625 7.96484375 C-12.59941406 7.98224609 -12.59941406 7.98224609 -14 8 C-14.33 7.01 -14.66 6.02 -15 5 C-8.07 5.495 -8.07 5.495 -1 6 C-0.67 4.02 -0.34 2.04 0 0 Z " fill="#7D7D7D" transform="translate(244,229)"/>
<path d="M0 0 C2.35953094 2.35953094 2.49141413 3.77895617 3 7 C1.35 6.67 -0.3 6.34 -2 6 C-2 6.66 -2 7.32 -2 8 C-2.99 8 -3.98 8 -5 8 C-4.67 8.66 -4.34 9.32 -4 10 C-8.75 8.125 -8.75 8.125 -11 7 C-11.042721 5.33388095 -11.04063832 3.66617115 -11 2 C-9.10114904 0.10114904 -6.42752097 0.87632494 -3.91015625 0.8671875 C-2 1 -2 1 0 2 C0 1.34 0 0.68 0 0 Z " fill="#EBEBEB" transform="translate(179,314)"/>
<path d="M0 0 C0 0.66 0 1.32 0 2 C0.99 1.67 1.98 1.34 3 1 C3 1.99 3 2.98 3 4 C5.97 4 8.94 4 12 4 C12 4.66 12 5.32 12 6 C10.02 6 8.04 6 6 6 C6 6.99 6 7.98 6 9 C7.65 9 9.3 9 11 9 C11 9.33 11 9.66 11 10 C9.35 10 7.7 10 6 10 C6 11.32 6 12.64 6 14 C7.98 14 9.96 14 12 14 C12 14.66 12 15.32 12 16 C9.36 16 6.72 16 4 16 C4 12.37 4 8.74 4 5 C2.68 5.33 1.36 5.66 0 6 C0 5.34 0 4.68 0 4 C-1.65 4 -3.3 4 -5 4 C-5.33 3.34 -5.66 2.68 -6 2 C-2.25 0 -2.25 0 0 0 Z " fill="#A4A4A4" transform="translate(324,345)"/>
<path d="M0 0 C0.33 0.99 0.66 1.98 1 3 C-8.41002278 7.59225513 -8.41002278 7.59225513 -13 7 C-13 4.69 -13 2.38 -13 0 C-8.38926889 -1.29676812 -4.66159911 -0.71109139 0 0 Z " fill="#070707" transform="translate(272,206)"/>
<path d="M0 0 C1.98 0 3.96 0 6 0 C8 2 8 2 8.3125 4.5 C8.1578125 5.7375 8.1578125 5.7375 8 7 C5 9 5 9 2 9 C1.67 13.29 1.34 17.58 1 22 C0.67 22 0.34 22 0 22 C0 14.74 0 7.48 0 0 Z " fill="#D4D4D4" transform="translate(231,315)"/>
<path d="M0 0 C0.33 0 0.66 0 1 0 C0.67 10.56 0.34 21.12 0 32 C-0.33 32 -0.66 32 -1 32 C-1.33 30.02 -1.66 28.04 -2 26 C-2.33 26 -2.66 26 -3 26 C-3.19522373 23.41703983 -3.38144403 20.83395921 -3.5625 18.25 C-3.61857422 17.52039063 -3.67464844 16.79078125 -3.73242188 16.0390625 C-3.97709908 12.45046349 -3.99666259 9.44972775 -3 6 C-2.34 6 -1.68 6 -1 6 C-0.67 4.02 -0.34 2.04 0 0 Z " fill="#222222" transform="translate(244,256)"/>
<path d="M0 0 C0.66 0 1.32 0 2 0 C1.52363602 2.3818199 1.04664482 4.76348826 0.56640625 7.14453125 C0.20786908 8.9520531 -0.13987138 10.76177886 -0.47265625 12.57421875 C-1.53108308 18.23991531 -3.03667066 23.58121103 -5 29 C-7.26897041 25.59654439 -7.21235276 23.9904938 -6.69140625 20.02734375 C-5.12386099 13.1637981 -2.47060344 6.58072048 0 0 Z " fill="#898989" transform="translate(262,174)"/>
<path d="M0 0 C-0.75 6.625 -0.75 6.625 -3 10 C-3 8.02 -3 6.04 -3 4 C-5.475 3.505 -5.475 3.505 -8 3 C-8.66 4.32 -9.32 5.64 -10 7 C-10.928125 6.835 -11.85625 6.67 -12.8125 6.5 C-15.95621353 5.92251612 -15.95621353 5.92251612 -19 6 C-21 6 -23 6 -25 6 C-21.46792886 3.64528591 -18.07877549 2.89116103 -14 2 C-13.14019531 1.81179687 -12.28039062 1.62359375 -11.39453125 1.4296875 C-7.46446087 0.60535959 -4.04071145 0 0 0 Z " fill="#E2E2E2" transform="translate(259,175)"/>
<path d="M0 0 C1.32 0 2.64 0 4 0 C4 0.66 4 1.32 4 2 C4.639375 2.309375 5.27875 2.61875 5.9375 2.9375 C8 4 8 4 9 5 C9.07205511 6.68608966 9.08386068 8.37500659 9.0625 10.0625 C9.05347656 10.98160156 9.04445313 11.90070313 9.03515625 12.84765625 C9.02355469 13.55792969 9.01195312 14.26820313 9 15 C8.34 14.01 7.68 13.02 7 12 C6.67 12.66 6.34 13.32 6 14 C5.01 13.67 4.02 13.34 3 13 C2.67 13.99 2.34 14.98 2 16 C1.67 15.01 1.34 14.02 1 13 C1.639375 12.566875 2.27875 12.13375 2.9375 11.6875 C5.26746003 10.08760823 5.26746003 10.08760823 6 7 C5.05125 6.71125 4.1025 6.4225 3.125 6.125 C0 5 0 5 -2 3 C-1.34 2.01 -0.68 1.02 0 0 Z " fill="#2A2A2A" transform="translate(306,173)"/>
<path d="M0 0 C1.258125 -0.04125 2.51625 -0.0825 3.8125 -0.125 C4.52019531 -0.14820313 5.22789062 -0.17140625 5.95703125 -0.1953125 C8 0 8 0 11 2 C11.99 2 12.98 2 14 2 C12.96000776 5.0333107 11.9403702 7.07190652 9.875 9.5625 C7.59352616 12.01587788 7.59352616 12.01587788 8 16 C7.34 16 6.68 16 6 16 C5.97306425 13.87506859 5.95363372 11.75004088 5.9375 9.625 C5.92589844 8.44164062 5.91429687 7.25828125 5.90234375 6.0390625 C6 3 6 3 7 1 C5.02 1 3.04 1 1 1 C1 2.65 1 4.3 1 6 C0.67 6 0.34 6 0 6 C0 4.02 0 2.04 0 0 Z " fill="#E4E4E4" transform="translate(280,311)"/>
<path d="M0 0 C-0.33 1.98 -0.66 3.96 -1 6 C-1.66 6 -2.32 6 -3 6 C-3.33 10.62 -3.66 15.24 -4 20 C-4.33 20 -4.66 20 -5 20 C-5.33 14.06 -5.66 8.12 -6 2 C-13.26 2 -20.52 2 -28 2 C-28 1.67 -28 1.34 -28 1 C-24.08339071 0.83196656 -20.16670399 0.66581012 -16.25 0.5 C-15.13882813 0.45230469 -14.02765625 0.40460938 -12.8828125 0.35546875 C-11.27792969 0.28779297 -11.27792969 0.28779297 -9.640625 0.21875 C-8.65610352 0.17685547 -7.67158203 0.13496094 -6.65722656 0.09179688 C-4.43926319 0.01517484 -2.21928648 0 0 0 Z " fill="#878787" transform="translate(244,256)"/>
<path d="M0 0 C2.5 1.8125 2.5 1.8125 5 4 C5 4.99 5 5.98 5 7 C4.34 7.66 3.68 8.32 3 9 C6.63719605 11.42479736 8.85703482 11.38662577 13.1875 11.625 C14.45980469 11.69976562 15.73210937 11.77453125 17.04296875 11.8515625 C18.01878906 11.90054688 18.99460937 11.94953125 20 12 C20 12.33 20 12.66 20 13 C17.47909222 13.0272367 14.95848543 13.04695207 12.4375 13.0625 C11.38079102 13.07506836 11.38079102 13.07506836 10.30273438 13.08789062 C5.75975202 13.10882603 1.48215108 12.74800682 -3 12 C-2.40075776 7.80530429 -1.42500059 3.99000166 0 0 Z " fill="#1A1A1A" transform="translate(265,160)"/>
<path d="M0 0 C0.99 0.33 1.98 0.66 3 1 C3 1.99 3 2.98 3 4 C3.56589844 3.84402344 4.13179687 3.68804687 4.71484375 3.52734375 C5.44832031 3.33269531 6.18179688 3.13804687 6.9375 2.9375 C7.66839844 2.74027344 8.39929688 2.54304688 9.15234375 2.33984375 C9.76207031 2.22769531 10.37179688 2.11554688 11 2 C12 3 12 3 12.0625 6.5625 C12.041875 7.696875 12.02125 8.83125 12 10 C9.8125 10.8125 9.8125 10.8125 7 11 C2.91962452 7.86854905 1.26384957 4.94050285 0 0 Z " fill="#0F0F0F" transform="translate(238,288)"/>
<path d="M0 0 C6.6 0 13.2 0 20 0 C20 5.28 20 10.56 20 16 C19.34 16 18.68 16 18 16 C17.67 15.01 17.34 14.02 17 13 C17.66 13 18.32 13 19 13 C19 10.69 19 8.38 19 6 C18.01 6.33 17.02 6.66 16 7 C16 6.01 16 5.02 16 4 C10.6787385 2.91681831 5.36513131 1.847126 0 1 C0 0.67 0 0.34 0 0 Z " fill="#DFDFDF" transform="translate(218,258)"/>
<path d="M0 0 C0.66 0 1.32 0 2 0 C2.33 2.31 2.66 4.62 3 7 C3.66 7 4.32 7 5 7 C5 7.66 5 8.32 5 9 C4.34 9 3.68 9 3 9 C3 9.66 3 10.32 3 11 C1.37512529 11.16788373 -0.24990442 11.33426787 -1.875 11.5 C-3.23238281 11.63921875 -3.23238281 11.63921875 -4.6171875 11.78125 C-7 12 -7 12 -9 12 C-9 12.66 -9 13.32 -9 14 C-9.99 14 -10.98 14 -12 14 C-11.67 13.01 -11.34 12.02 -11 11 C-8.4375 9.8125 -8.4375 9.8125 -6 9 C-6 7.68 -6 6.36 -6 5 C-3.525 5.99 -3.525 5.99 -1 7 C-0.67 4.69 -0.34 2.38 0 0 Z " fill="#BDBDBD" transform="translate(206,351)"/>
<path d="M0 0 C0.66 0 1.32 0 2 0 C3.29588074 3.45568196 2.7757276 6.44767598 2.26171875 10.0390625 C1.76958105 13.72642259 1.82207179 16.46621536 3 20 C2.01 20 1.02 20 0 20 C-2.8265114 12.93372151 -2.8265114 7.06627849 0 0 Z " fill="#131313" transform="translate(214,188)"/>
<path d="M0 0 C10.80516994 -0.62039253 10.80516994 -0.62039253 15.25 1.6875 C17 4 17 4 17.4375 6.5625 C17 9 17 9 15 12 C14.01 11.67 13.02 11.34 12 11 C12 9.02 12 7.04 12 5 C7.34178551 3.63477351 7.34178551 3.63477351 2.625 2.5 C2.08875 2.335 1.5525 2.17 1 2 C0.67 1.34 0.34 0.68 0 0 Z " fill="#242424" transform="translate(226,312)"/>
<path d="M0 0 C0.33 0 0.66 0 1 0 C1 1.65 1 3.3 1 5 C1.66 5.33 2.32 5.66 3 6 C3.33 4.68 3.66 3.36 4 2 C4.33 2.66 4.66 3.32 5 4 C5.99 2.68 6.98 1.36 8 0 C8.33 1.65 8.66 3.3 9 5 C8.01 5.66 7.02 6.32 6 7 C6.33 7.66 6.66 8.32 7 9 C7.66 9 8.32 9 9 9 C9 9.66 9 10.32 9 11 C7.35 10.67 5.7 10.34 4 10 C4 9.34 4 8.68 4 8 C1.69 8.66 -0.62 9.32 -3 10 C-3 9.34 -3 8.68 -3 8 C-2.34 8 -1.68 8 -1 8 C-0.67 5.36 -0.34 2.72 0 0 Z M2 10 C2.99 10.495 2.99 10.495 4 11 C3.01 11.495 3.01 11.495 2 12 C2 11.34 2 10.68 2 10 Z " fill="#252525" transform="translate(241,243)"/>
<path d="M0 0 C3.0020841 0.08887749 5.99749942 0.06005001 9 0 C8.67 1.32 8.34 2.64 8 4 C8 3.01 8 2.02 8 1 C6.96359375 1.31195313 5.9271875 1.62390625 4.859375 1.9453125 C3.48980112 2.33929951 2.11999705 2.73248698 0.75 3.125 C-0.27287109 3.43630859 -0.27287109 3.43630859 -1.31640625 3.75390625 C-4.24790571 4.57927988 -6.39284244 5.17893054 -9.359375 4.3046875 C-11 3 -11 3 -13 0 C-8.27413893 -0.85065499 -4.69216032 -0.84458886 0 0 Z " fill="#2D2D2D" transform="translate(234,236)"/>
<path d="M0 0 C0.99 0.33 1.98 0.66 3 1 C3.6875 3.0625 3.6875 3.0625 4 5 C4.66 5 5.32 5 6 5 C6.66 3.35 7.32 1.7 8 0 C8.99 0 9.98 0 11 0 C11 3.3 11 6.6 11 10 C10.34 10 9.68 10 9 10 C8.67 8.35 8.34 6.7 8 5 C7.01 6.485 7.01 6.485 6 8 C5.34 8 4.68 8 4 8 C3.34 6.68 2.68 5.36 2 4 C1.67 5.98 1.34 7.96 1 10 C0.67 10 0.34 10 0 10 C0 6.7 0 3.4 0 0 Z " fill="#4A4A4A" transform="translate(161,352)"/>
<path d="M0 0 C4.95 0 9.9 0 15 0 C15 1.32 15 2.64 15 4 C14.01 4 13.02 4 12 4 C12 3.34 12 2.68 12 2 C9.03 2 6.06 2 3 2 C2.67 9.59 2.34 17.18 2 25 C1.67 25 1.34 25 1 25 C0.67 16.75 0.34 8.5 0 0 Z " fill="#414141" transform="translate(316,312)"/>
<path d="M0 0 C1.64938825 2.50790264 2.055756 3.6434499 1.58447266 6.65722656 C1.2807373 7.64174805 0.97700195 8.62626953 0.6640625 9.640625 C0.34179688 10.71054688 0.01953125 11.78046875 -0.3125 12.8828125 C-0.663125 13.99398437 -1.01375 15.10515625 -1.375 16.25 C-1.71789062 17.37664062 -2.06078125 18.50328125 -2.4140625 19.6640625 C-3.26308742 22.44697751 -4.12545679 25.22501929 -5 28 C-5.66 28 -6.32 28 -7 28 C-5.76470691 18.26515296 -3.0827212 9.27169581 0 0 Z " fill="#3B3B3B" transform="translate(253,194)"/>
<path d="M0 0 C1.33333333 0 2.66666667 0 4 0 C4 1.65 4 3.3 4 5 C5.65 5 7.3 5 9 5 C9 5.33 9 5.66 9 6 C7.35 6 5.7 6 4 6 C3.87625 6.515625 3.7525 7.03125 3.625 7.5625 C2.81358372 10.72702351 1.9054087 13.86124985 1 17 C-1.58186812 13.20313511 -0.71416445 10.36433828 0 6 C-0.33 5.01 -0.66 4.02 -1 3 C-0.67 2.01 -0.34 1.02 0 0 Z " fill="#333333" transform="translate(255,200)"/>
<path d="M0 0 C1.134375 0.020625 2.26875 0.04125 3.4375 0.0625 C-0.40950632 2.14629509 -4.46304429 3.55936624 -8.5625 5.0625 C-8.5625 5.7225 -8.5625 6.3825 -8.5625 7.0625 C-12.1750362 8.91077434 -15.7714881 10.61299545 -19.5625 12.0625 C-18.2425 10.7425 -16.9225 9.4225 -15.5625 8.0625 C-15.8925 7.4025 -16.2225 6.7425 -16.5625 6.0625 C-15.70785156 5.71316406 -14.85320312 5.36382812 -13.97265625 5.00390625 C-12.86792969 4.54886719 -11.76320312 4.09382812 -10.625 3.625 C-9.52285156 3.17253906 -8.42070312 2.72007812 -7.28515625 2.25390625 C-2.22357383 0.03901007 -2.22357383 0.03901007 0 0 Z " fill="#464646" transform="translate(238.5625,171.9375)"/>
<path d="M0 0 C1.98 0 3.96 0 6 0 C5.67 7.92 5.34 15.84 5 24 C4.67 24 4.34 24 4 24 C3.92652344 22.28490234 3.92652344 22.28490234 3.8515625 20.53515625 C3.77654811 19.04424527 3.70099972 17.55336108 3.625 16.0625 C3.5940625 15.30775391 3.563125 14.55300781 3.53125 13.77539062 C3.4273685 11.84492605 3.22104386 9.92057919 3 8 C2.34 7.67 1.68 7.34 1 7 C0.59270772 4.67843403 0.25561323 2.3431213 0 0 Z " fill="#222222" transform="translate(281,312)"/>
<path d="M0 0 C1.98 0 3.96 0 6 0 C4.34697456 3.58155513 2.18447628 6.72328557 0 10 C-0.69429379 11.3191582 -1.37530495 12.64649406 -2 14 C-2.33 13.01 -2.66 12.02 -3 11 C-3.66 10.67 -4.32 10.34 -5 10 C-4.6390625 9.52949219 -4.278125 9.05898438 -3.90625 8.57421875 C-3.4421875 7.95160156 -2.978125 7.32898438 -2.5 6.6875 C-2.0359375 6.07261719 -1.571875 5.45773437 -1.09375 4.82421875 C0.25711283 2.92566995 0.25711283 2.92566995 0 0 Z " fill="#1E1E1E" transform="translate(293,312)"/>
<path d="M0 0 C1.5 1.3125 1.5 1.3125 3 3 C3 3.99 3 4.98 3 6 C2.34 6.66 1.68 7.32 1 8 C0.67 7.67 0.34 7.34 0 7 C-0.33 10.3 -0.66 13.6 -1 17 C-1.66 17 -2.32 17 -3 17 C-3.33 12.38 -3.66 7.76 -4 3 C-2.68 2.67 -1.36 2.34 0 2 C0 1.34 0 0.68 0 0 Z " fill="#B1B1B1" transform="translate(284,344)"/>
<path d="M0 0 C1.65 0 3.3 0 5 0 C5.33 0.66 5.66 1.32 6 2 C4.35 2 2.7 2 1 2 C2.39195915 4.7839183 4.15575779 4.97898997 7 6 C6.67 7.65 6.34 9.3 6 11 C4.02 11 2.04 11 0 11 C-0.33 10.34 -0.66 9.68 -1 9 C0.98 9 2.96 9 5 9 C4.67 8.34 4.34 7.68 4 7 C1.47266765 6.34444881 1.47266765 6.34444881 -1 6 C-0.67 4.02 -0.34 2.04 0 0 Z " fill="#5F5F5F" transform="translate(256,350)"/>
<path d="M0 0 C0.99 0 1.98 0 3 0 C3 0.66 3 1.32 3 2 C5.31 2 7.62 2 10 2 C9.40075776 6.19469571 8.42500059 10.00999834 7 14 C6.67 14 6.34 14 6 14 C5.97421875 13.30132812 5.9484375 12.60265625 5.921875 11.8828125 C5.86515625 10.97273437 5.8084375 10.06265625 5.75 9.125 C5.70359375 8.22007812 5.6571875 7.31515625 5.609375 6.3828125 C5.25547339 3.83745243 5.25547339 3.83745243 3.015625 2.8046875 C2.35046875 2.53914062 1.6853125 2.27359375 1 2 C0.67 1.34 0.34 0.68 0 0 Z " fill="#202020" transform="translate(259,170)"/>
<path d="M0 0 C1.2065625 0.0309375 1.2065625 0.0309375 2.4375 0.0625 C2.7675 0.7225 3.0975 1.3825 3.4375 2.0625 C2.1175 2.0625 0.7975 2.0625 -0.5625 2.0625 C-0.8925 2.7225 -1.2225 3.3825 -1.5625 4.0625 C0.4175 4.7225 2.3975 5.3825 4.4375 6.0625 C4.1075 7.3825 3.7775 8.7025 3.4375 10.0625 C1.4575 10.3925 -0.5225 10.7225 -2.5625 11.0625 C-2.8925 10.4025 -3.2225 9.7425 -3.5625 9.0625 C-1.5825 9.0625 0.3975 9.0625 2.4375 9.0625 C2.4375 8.4025 2.4375 7.7425 2.4375 7.0625 C0.4575 6.4025 -1.5225 5.7425 -3.5625 5.0625 C-3.5625 0.08689024 -3.5625 0.08689024 0 0 Z " fill="#535353" transform="translate(196.5625,350.9375)"/>
<path d="M0 0 C3.96 0 7.92 0 12 0 C12 1.32 12 2.64 12 4 C11.30132812 3.96519531 10.60265625 3.93039062 9.8828125 3.89453125 C8.97273437 3.86746094 8.06265625 3.84039062 7.125 3.8125 C6.22007812 3.77769531 5.31515625 3.74289062 4.3828125 3.70703125 C3.59648437 3.80371094 2.81015625 3.90039062 2 4 C1.34 4.99 0.68 5.98 0 7 C-1.125 2.25 -1.125 2.25 0 0 Z " fill="#171717" transform="translate(167,312)"/>
<path d="M0 0 C3.76687864 1.88343932 4.79421646 2.69132469 7 6 C7.33 4.02 7.66 2.04 8 0 C8.33 0 8.66 0 9 0 C9 3.3 9 6.6 9 10 C7.02 8.35 5.04 6.7 3 5 C2.67 6.65 2.34 8.3 2 10 C1.34 10 0.68 10 0 10 C0 6.7 0 3.4 0 0 Z " fill="#3B3B3B" transform="translate(240,351)"/>
<path d="M0 0 C0.66 0.99 1.32 1.98 2 3 C1.34 3.66 0.68 4.32 0 5 C0 5.99 0 6.98 0 8 C-1.32 8 -2.64 8 -4 8 C-4.33 7.67 -4.66 7.34 -5 7 C-5.99 7.33 -6.98 7.66 -8 8 C-8 6.35 -8 4.7 -8 3 C-6.865625 2.87625 -5.73125 2.7525 -4.5625 2.625 C-3.386875 2.41875 -2.21125 2.2125 -1 2 C-0.67 1.34 -0.34 0.68 0 0 Z " fill="#F3F3F3" transform="translate(334,327)"/>
<path d="M0 0 C0.33 0.99 0.66 1.98 1 3 C2.65 3 4.3 3 6 3 C5.67 5.31 5.34 7.62 5 10 C2.03 9.505 2.03 9.505 -1 9 C-0.67 6.03 -0.34 3.06 0 0 Z " fill="#3F3F3F" transform="translate(210,247)"/>
<path d="M0 0 C0.33 0 0.66 0 1 0 C0.979375 0.928125 0.95875 1.85625 0.9375 2.8125 C0.84230396 6.02286011 0.84230396 6.02286011 2 9 C1.66015625 11.26171875 1.66015625 11.26171875 1.0625 13.6875 C0.77052734 14.89986328 0.77052734 14.89986328 0.47265625 16.13671875 C0.31667969 16.75160156 0.16070312 17.36648437 0 18 C-0.99 18 -1.98 18 -3 18 C-2.6919856 15.37440156 -2.37879818 12.74960194 -2.0625 10.125 C-1.97548828 9.37863281 -1.88847656 8.63226563 -1.79882812 7.86328125 C-1.11328125 2.2265625 -1.11328125 2.2265625 0 0 Z " fill="#9F9F9F" transform="translate(254,198)"/>
<path d="M0 0 C-1 2 -1 2 -2.9609375 2.8515625 C-3.75757813 3.10679687 -4.55421875 3.36203125 -5.375 3.625 C-6.16648438 3.88539063 -6.95796875 4.14578125 -7.7734375 4.4140625 C-10 5 -10 5 -13 5 C-12.66855019 2.51412643 -12.38738909 1.32540684 -10.4375 -0.3125 C-6.76381663 -1.3486671 -3.75129881 -0.62521647 0 0 Z " fill="#0E0E0E" transform="translate(242,177)"/>
<path d="M0 0 C2.97 0.33 5.94 0.66 9 1 C8.67 1.99 8.34 2.98 8 4 C2.39 4 -3.22 4 -9 4 C-9 3.67 -9 3.34 -9 3 C-6.36 3 -3.72 3 -1 3 C-0.67 2.01 -0.34 1.02 0 0 Z " fill="#060606" transform="translate(232,253)"/>
<path d="M0 0 C2.38672669 2.96283313 4.7353371 5.94270509 7 9 C6.67 9.66 6.34 10.32 6 11 C5.34 11 4.68 11 4 11 C4 10.34 4 9.68 4 9 C3.34 9 2.68 9 2 9 C1.67 9.66 1.34 10.32 1 11 C0.01 10.01 -0.98 9.02 -2 8 C-1.67 7.34 -1.34 6.68 -1 6 C-1 5.34 -1 4.68 -1 4 C-0.68521554 2.66216607 -0.35412344 1.32796291 0 0 Z " fill="#282828" transform="translate(216,202)"/>
<path d="M0 0 C8.57142857 2 8.57142857 2 12 4 C11.67 4.66 11.34 5.32 11 6 C9.56163249 5.88541307 8.12429034 5.75790884 6.6875 5.625 C5.88699219 5.55539063 5.08648437 5.48578125 4.26171875 5.4140625 C2 5 2 5 -1 3 C-0.67 2.01 -0.34 1.02 0 0 Z " fill="#F4F4F4" transform="translate(298,175)"/>
<path d="M0 0 C0.99 0.33 1.98 0.66 3 1 C2.01 5.95 1.02 10.9 0 16 C-0.66 16 -1.32 16 -2 16 C-2.33 16.99 -2.66 17.98 -3 19 C-3.33 18.34 -3.66 17.68 -4 17 C-3.01 15.515 -3.01 15.515 -2 14 C-1.16686474 10.73688689 -0.68712912 8.79260623 -1.9375 5.625 C-2.288125 5.08875 -2.63875 4.5525 -3 4 C-2.34 4 -1.68 4 -1 4 C-0.67 2.68 -0.34 1.36 0 0 Z " fill="#E6E6E6" transform="translate(212,184)"/>
<path d="M0 0 C0.66 0 1.32 0 2 0 C3.55896134 5.64789422 2.20700625 9.18501332 0.0625 14.375 C-0.22818359 15.11105469 -0.51886719 15.84710938 -0.81835938 16.60546875 C-1.53266999 18.40881029 -2.26458516 20.20516146 -3 22 C-4.52426489 18.0790922 -3.39147184 15.43307455 -2.0625 11.5625 C-0.68437311 7.53089488 0.26362752 4.27396128 0 0 Z " fill="#282828" transform="translate(258,174)"/>
<path d="M0 0 C4.62 0.66 9.24 1.32 14 2 C11 5 11 5 7.5625 5.25 C4.84946236 5.05961139 2.56986388 4.82235644 0 4 C0 2.68 0 1.36 0 0 Z " fill="#1D1D1D" transform="translate(163,334)"/>
<path d="M0 0 C0.33 0 0.66 0 1 0 C1 1.65 1 3.3 1 5 C1.66 5 2.32 5 3 5 C3.66 6.32 4.32 7.64 5 9 C3.02 9.99 3.02 9.99 1 11 C-3 5.375 -3 5.375 -3 2 C-2.01 2 -1.02 2 0 2 C0 1.34 0 0.68 0 0 Z " fill="#1C1C1C" transform="translate(290,321)"/>
<path d="M0 0 C0.66 0 1.32 0 2 0 C2.33 2.64 2.66 5.28 3 8 C4.32 7.67 5.64 7.34 7 7 C7.33 4.69 7.66 2.38 8 0 C8.33 0 8.66 0 9 0 C9.02689216 1.47906892 9.04634621 2.95827483 9.0625 4.4375 C9.07410156 5.26121094 9.08570313 6.08492188 9.09765625 6.93359375 C9 9 9 9 8 10 C5.66702567 10.04092937 3.33294775 10.04241723 1 10 C-0.60725635 6.78548731 -0.05748185 3.56387464 0 0 Z " fill="#4C4C4C" transform="translate(301,350)"/>
<path d="M0 0 C-0.75 6.625 -0.75 6.625 -3 10 C-3 8.02 -3 6.04 -3 4 C-4.0725 3.855625 -5.145 3.71125 -6.25 3.5625 C-8.92599819 3.16110027 -11.39881191 2.68482607 -14 2 C-12.4176994 1.66179834 -10.83410625 1.32964061 -9.25 1 C-8.36828125 0.814375 -7.4865625 0.62875 -6.578125 0.4375 C-4 0 -4 0 0 0 Z " fill="#D0D0D0" transform="translate(259,175)"/>
<path d="M0 0 C2.97 0 5.94 0 9 0 C9 0.66 9 1.32 9 2 C8.01 2 7.02 2 6 2 C6 4.97 6 7.94 6 11 C5.34 11 4.68 11 4 11 C4 8.03 4 5.06 4 2 C2.68 2 1.36 2 0 2 C0 1.34 0 0.68 0 0 Z " fill="#5F5F5F" transform="translate(267,350)"/>
<path d="M0 0 C-1.98 0.99 -3.96 1.98 -6 3 C-3.69 2.34 -1.38 1.68 1 1 C0.34 2.65 -0.32 4.3 -1 6 C-4.63 5.34 -8.26 4.68 -12 4 C-8.59914501 0.59914501 -4.67235329 -1.5574511 0 0 Z " fill="#3D3D3D" transform="translate(299,193)"/>
<path d="M0 0 C0 0.66 0 1.32 0 2 C-3.01490557 4.00993705 -5.2149927 4.72623341 -8.6875 5.625 C-9.68136719 5.88539063 -10.67523438 6.14578125 -11.69921875 6.4140625 C-12.45847656 6.60742188 -13.21773438 6.80078125 -14 7 C-12 4 -12 4 -9.375 3.3125 C-8.59125 3.209375 -7.8075 3.10625 -7 3 C-6.67 2.01 -6.34 1.02 -6 0 C-3.50907189 -1.24546405 -2.58919267 -0.7767578 0 0 Z " fill="#1E1E1E" transform="translate(306,190)"/>
<path d="M0 0 C0.66 0.99 1.32 1.98 2 3 C1 5 0 7 -1 9 C-1.35613097 10.66194453 -1.69208308 12.328451 -2 14 C-2.66 14 -3.32 14 -4 14 C-4 14.66 -4 15.32 -4 16 C-4.66 16 -5.32 16 -6 16 C-4.25192871 10.53262809 -2.34205919 5.24175152 0 0 Z " fill="#2E2E2E" transform="translate(276,132)"/>
<path d="M0 0 C2.31 0 4.62 0 7 0 C6.67 1.65 6.34 3.3 6 5 C4.35 5 2.7 5 1 5 C1 5.66 1 6.32 1 7 C2.65 7 4.3 7 6 7 C6 7.33 6 7.66 6 8 C4.02 8 2.04 8 0 8 C0 5.36 0 2.72 0 0 Z " fill="#C6C6C6" transform="translate(330,351)"/>
<path d="M0 0 C1.17219543 0.78345715 2.33763668 1.57702836 3.5 2.375 C4.47453125 3.03628906 4.47453125 3.03628906 5.46875 3.7109375 C6.22671875 4.34902344 6.22671875 4.34902344 7 5 C7 5.66 7 6.32 7 7 C4.1875 7.3125 4.1875 7.3125 1 7 C-0.875 4.5 -0.875 4.5 -2 2 C-1.34 1.34 -0.68 0.68 0 0 Z " fill="#353535" transform="translate(241,332)"/>
<path d="M0 0 C1.98 0.495 1.98 0.495 4 1 C4.625 2.8125 4.625 2.8125 5 5 C4.01 6.485 4.01 6.485 3 8 C1.68 8 0.36 8 -1 8 C-0.67 5.36 -0.34 2.72 0 0 Z " fill="#DEDEDE" transform="translate(172,328)"/>
<path d="M0 0 C0.33 0 0.66 0 1 0 C1.33 7.92 1.66 15.84 2 24 C0.02 24 -1.96 24 -4 24 C-3.67 23.34 -3.34 22.68 -3 22 C-2.34 22.33 -1.68 22.66 -1 23 C-0.67 15.41 -0.34 7.82 0 0 Z " fill="#363636" transform="translate(204,315)"/>
<path d="M0 0 C0.99 0.495 0.99 0.495 2 1 C4.00109278 0.67329097 6.00116131 0.34022786 8 0 C9 1 9 1 9.0625 4.5625 C9.041875 5.696875 9.02125 6.83125 9 8 C8.01 8.33 7.02 8.66 6 9 C5.67 7.02 5.34 5.04 5 3 C3.35 3.33 1.7 3.66 0 4 C0 2.68 0 1.36 0 0 Z " fill="#DCDCDC" transform="translate(244,288)"/>
<path d="M0 0 C-0.33 1.98 -0.66 3.96 -1 6 C-5.75 7.125 -5.75 7.125 -8 6 C-8.33 6.99 -8.66 7.98 -9 9 C-9.66 8.67 -10.32 8.34 -11 8 C-3.21621622 0 -3.21621622 0 0 0 Z " fill="#272727" transform="translate(230,270)"/>
<path d="M0 0 C0.99 0.33 1.98 0.66 3 1 C2.649375 1.61875 2.29875 2.2375 1.9375 2.875 C1.628125 3.57625 1.31875 4.2775 1 5 C1.33 5.66 1.66 6.32 2 7 C-2.455 6.01 -2.455 6.01 -7 5 C-2.25 1.125 -2.25 1.125 0 0 Z " fill="#E2E2E2" transform="translate(309,192)"/>
<path d="M0 0 C1.33332095 2.6666419 0.67102033 4.16680303 0 7 C0.99 7 1.98 7 3 7 C3 7.66 3 8.32 3 9 C5.31 9.66 7.62 10.32 10 11 C10 11.33 10 11.66 10 12 C8.741875 12.04125 7.48375 12.0825 6.1875 12.125 C5.47980469 12.14820313 4.77210938 12.17140625 4.04296875 12.1953125 C2 12 2 12 -1 10 C-1.328125 7.87109375 -1.328125 7.87109375 -1.25 5.4375 C-1.23453125 4.63183594 -1.2190625 3.82617188 -1.203125 2.99609375 C-1 1 -1 1 0 0 Z " fill="#353535" transform="translate(218,279)"/>
<path d="M0 0 C0 0.99 0 1.98 0 3 C-2 4.6875 -2 4.6875 -4 6 C-4 5.34 -4 4.68 -4 4 C-4.99 4.33 -5.98 4.66 -7 5 C-7.33 3.68 -7.66 2.36 -8 1 C-4.93251126 -0.86240388 -3.40254489 -1.2151946 0 0 Z " fill="#090909" transform="translate(254,248)"/>
<path d="M0 0 C0.66 0.66 1.32 1.32 2 2 C1.57469657 5.82773086 0.26430036 9.3756723 -1 13 C-1.99 13 -2.98 13 -4 13 C-3.52343588 11.20763933 -3.04366502 9.41613103 -2.5625 7.625 C-2.29566406 6.62726563 -2.02882813 5.62953125 -1.75390625 4.6015625 C-1 2 -1 2 0 0 Z " fill="#1A1A1A" transform="translate(261,188)"/>
<path d="M0 0 C-0.66 1.65 -1.32 3.3 -2 5 C-7.28 5 -12.56 5 -18 5 C-17.67 4.34 -17.34 3.68 -17 3 C-13.04 3 -9.08 3 -5 3 C-5 2.34 -5 1.68 -5 1 C-2 0 -2 0 0 0 Z " fill="#545454" transform="translate(334,334)"/>
<path d="M0 0 C0.99 0.33 1.98 0.66 3 1 C3 1.99 3 2.98 3 4 C4.65 4 6.3 4 8 4 C7.67 5.98 7.34 7.96 7 10 C3.78634109 8.89184175 3.0085776 8.01470446 1.25 5 C0 2 0 2 0 0 Z " fill="#262626" transform="translate(238,288)"/>
<path d="M0 0 C-5.84560277 2.63463787 -10.54487966 4.56131481 -17 4 C-17 3.34 -17 2.68 -17 2 C-14.69 2 -12.38 2 -10 2 C-10 1.34 -10 0.68 -10 0 C-6.26432828 -0.76411467 -3.65188082 -1.07174763 0 0 Z " fill="#535353" transform="translate(240,251)"/>
<path d="M0 0 C0.99 0.33 1.98 0.66 3 1 C2.34 4.63 1.68 8.26 1 12 C0.01 11.67 -0.98 11.34 -2 11 C-2 8.36 -2 5.72 -2 3 C-1.34 3 -0.68 3 0 3 C0 2.01 0 1.02 0 0 Z " fill="#C3C3C3" transform="translate(243,237)"/>
<path d="M0 0 C0.99 0.33 1.98 0.66 3 1 C2.01 3.97 1.02 6.94 0 10 C-1.5625 8.25 -1.5625 8.25 -3 6 C-2.6875 3.75 -2.6875 3.75 -2 2 C-1.34 2 -0.68 2 0 2 C0 1.34 0 0.68 0 0 Z " fill="#ECECEC" transform="translate(268,144)"/>
<path d="M0 0 C-0.6875 2.4375 -0.6875 2.4375 -2 5 C-4.625 5.8125 -4.625 5.8125 -7 6 C-6.67 5.34 -6.34 4.68 -6 4 C-10.455 3.01 -10.455 3.01 -15 2 C-11.12005855 1.03001464 -7.96808579 1 -4 1 C-2 0 -2 0 0 0 Z " fill="#C0C0C0" transform="translate(178,337)"/>
<path d="M0 0 C1.65 0.33 3.3 0.66 5 1 C5.50432107 6.2953712 4.28757779 8.86704506 1 13 C0.01 13.66 -0.98 14.32 -2 15 C-2 14.01 -2 13.02 -2 12 C-1.34 11.38125 -0.68 10.7625 0 10.125 C2.22540113 8.16691873 2.22540113 8.16691873 2.375 5.4375 C2.13662319 2.74805981 2.13662319 2.74805981 0 0 Z " fill="#D7D7D7" transform="translate(240,313)"/>
<path d="M0 0 C1.52519276 0.08937803 3.04681929 0.24537146 4.5625 0.4375 C5.80193359 0.59025391 5.80193359 0.59025391 7.06640625 0.74609375 C7.70449219 0.82988281 8.34257812 0.91367188 9 1 C9 1.66 9 2.32 9 3 C7.73392393 3.53229326 6.46189588 4.05044544 5.1875 4.5625 C4.47980469 4.85253906 3.77210938 5.14257812 3.04296875 5.44140625 C1 6 1 6 -2 5 C-1.01 4.34 -0.02 3.68 1 3 C0.34 2.34 -0.32 1.68 -1 1 C-0.67 0.67 -0.34 0.34 0 0 Z " fill="#0D0D0D" transform="translate(287,197)"/>
<path d="M0 0 C1.32 0 2.64 0 4 0 C3.34 1.98 2.68 3.96 2 6 C-2.455 6.495 -2.455 6.495 -7 7 C-6.67 6.01 -6.34 5.02 -6 4 C-4.02 4 -2.04 4 0 4 C0 2.68 0 1.36 0 0 Z " fill="#BDBDBD" transform="translate(260,164)"/>
<path d="M0 0 C0.99 0 1.98 0 3 0 C3.1953125 6.0546875 3.1953125 6.0546875 3 8 C2.34 8.66 1.68 9.32 1 10 C0.01 9.67 -0.98 9.34 -2 9 C-1.34 9 -0.68 9 0 9 C0 6.03 0 3.06 0 0 Z " fill="#F6F6F6" transform="translate(273,352)"/>
<path d="M0 0 C-2.98646769 1.99097846 -5.59687262 2.94124926 -9 4 C-9 3.34 -9 2.68 -9 2 C-10.32 1.67 -11.64 1.34 -13 1 C-7.84596189 -1.68009982 -5.54675294 -2.57044649 0 0 Z " fill="#212121" transform="translate(291,199)"/>
<path d="M0 0 C0.5625 1.9375 0.5625 1.9375 1 4 C0 5 0 5 -3.0625 5.0625 C-4.031875 5.041875 -5.00125 5.02125 -6 5 C-5.67 4.01 -5.34 3.02 -5 2 C-5.66 1.67 -6.32 1.34 -7 1 C-4 0 -4 0 0 0 Z " fill="#0C0C0C" transform="translate(298,169)"/>
<path d="M0 0 C1.4540625 0.0309375 1.4540625 0.0309375 2.9375 0.0625 C2.9375 0.7225 2.9375 1.3825 2.9375 2.0625 C1.2875 2.3925 -0.3625 2.7225 -2.0625 3.0625 C-1.7325 4.7125 -1.4025 6.3625 -1.0625 8.0625 C-2.3825 7.4025 -3.7025 6.7425 -5.0625 6.0625 C-3.98897059 0.08140756 -3.98897059 0.08140756 0 0 Z " fill="#DCDCDC" transform="translate(220.0625,351.9375)"/>
<path d="M0 0 C2.56687367 3.8503105 1.83288724 5.58569763 1 10 C0.01 10 -0.98 10 -2 10 C-2.1953125 3.9453125 -2.1953125 3.9453125 -2 2 C-1.34 1.34 -0.68 0.68 0 0 Z " fill="#070707" transform="translate(209,244)"/>
<path d="M0 0 C2.64 0 5.28 0 8 0 C7.01 0.66 6.02 1.32 5 2 C6.65 2.33 8.3 2.66 10 3 C8 5 8 5 5.375 5.125 C4.59125 5.08375 3.8075 5.0425 3 5 C3 4.34 3 3.68 3 3 C1.68 3.33 0.36 3.66 -1 4 C-0.67 2.68 -0.34 1.36 0 0 Z " fill="#292929" transform="translate(272,166)"/>
<path d="M0 0 C0.66 0.99 1.32 1.98 2 3 C1.030625 3.495 0.06125 3.99 -0.9375 4.5 C-4.17740412 7.14481969 -4.43214173 7.40735288 -4.875 11.25 C-4.91625 12.4875 -4.9575 13.725 -5 15 C-5.33 15 -5.66 15 -6 15 C-6.46666667 6.91111111 -6.46666667 6.91111111 -4.6875 3.4375 C-3 2 -3 2 0 2 C0 1.34 0 0.68 0 0 Z " fill="#323232" transform="translate(212,239)"/>
<path d="M0 0 C0.33 0 0.66 0 1 0 C0.42978066 5.3503559 -0.20734361 10.67787852 -1 16 C-3.31323995 12.53014008 -3.03975162 11.01711296 -2.42578125 7.0078125 C-1.89999623 4.52842261 -1.07459989 2.29247976 0 0 Z " fill="#1E1E1E" transform="translate(254,213)"/>
<path d="M0 0 C0.66 0 1.32 0 2 0 C2 0.99 2 1.98 2 3 C2.66 3.33 3.32 3.66 4 4 C3.01 4 2.02 4 1 4 C1.33 5.32 1.66 6.64 2 8 C-0.31 7.67 -2.62 7.34 -5 7 C-3.625 5 -3.625 5 -2 3 C-1.34 3 -0.68 3 0 3 C0 2.01 0 1.02 0 0 Z " fill="#020202" transform="translate(270,164)"/>
<path d="M0 0 C-0.33 1.32 -0.66 2.64 -1 4 C-2.32 4.33 -3.64 4.66 -5 5 C-5.33 3.35 -5.66 1.7 -6 0 C-3.50907189 -1.24546405 -2.58919267 -0.7767578 0 0 Z " fill="#F0F0F0" transform="translate(224,355)"/>
<path d="M0 0 C0.99 0.33 1.98 0.66 3 1 C3 1.66 3 2.32 3 3 C3.66 3 4.32 3 5 3 C5 4.32 5 5.64 5 7 C0.32307692 5.52307692 0.32307692 5.52307692 -1.3125 2.875 C-1.539375 2.25625 -1.76625 1.6375 -2 1 C-1.34 0.67 -0.68 0.34 0 0 Z " fill="#DEDEDE" transform="translate(241,216)"/>
<path d="M0 0 C1.9375 0.625 1.9375 0.625 4 2 C4.75 5.125 4.75 5.125 5 8 C3.68 8.33 2.36 8.66 1 9 C0.63877119 7.68942607 0.28619689 6.37646376 -0.0625 5.0625 C-0.35833984 3.96615234 -0.35833984 3.96615234 -0.66015625 2.84765625 C-0.77230469 2.23792969 -0.88445312 1.62820312 -1 1 C-0.67 0.67 -0.34 0.34 0 0 Z " fill="#060606" transform="translate(275,139)"/>
<path d="M0 0 C0.86625 0.70125 1.7325 1.4025 2.625 2.125 C-0.375 2.125 -0.375 2.125 -2.375 1.125 C-2.705 2.115 -3.035 3.105 -3.375 4.125 C-4.035 3.465 -4.695 2.805 -5.375 2.125 C-6.69247324 1.42751417 -8.02414193 0.75540043 -9.375 0.125 C-5.25903069 -1.83498538 -4.10684181 -2.28157879 0 0 Z " fill="#F0F0F0" transform="translate(267.375,360.875)"/>
<path d="M0 0 C0.66 0 1.32 0 2 0 C1.37240135 2.92879371 0.41377341 5.36095629 -1 8 C-1.66 7.67 -2.32 7.34 -3 7 C-3 6.34 -3 5.68 -3 5 C-3.66 5 -4.32 5 -5 5 C-5 4.34 -5 3.68 -5 3 C-3.35 2.67 -1.7 2.34 0 2 C0 1.34 0 0.68 0 0 Z " fill="#EEEEEE" transform="translate(248,337)"/>
<path d="M0 0 C0.66 0.66 1.32 1.32 2 2 C2.66 1.67 3.32 1.34 4 1 C3.67 3.64 3.34 6.28 3 9 C2.34 9 1.68 9 1 9 C-0.4783226 6.04335481 -0.06032783 3.25770263 0 0 Z " fill="#DDDDDD" transform="translate(315,181)"/>
<path d="M0 0 C-2.11770166 2.32947183 -4.03335588 3.88750845 -7 5 C-7.99 4.67 -8.98 4.34 -10 4 C-6.87839899 0.56623888 -4.64008112 -1.54669371 0 0 Z " fill="#131313" transform="translate(307,193)"/>
<path d="M0 0 C1.5 1.375 1.5 1.375 3 3 C3 3.66 3 4.32 3 5 C3.66 5 4.32 5 5 5 C5 6.98 5 8.96 5 11 C4.360625 10.34 3.72125 9.68 3.0625 9 C1.35917681 6.88397569 1.35917681 6.88397569 0 7 C0 4.69 0 2.38 0 0 Z " fill="#D3D3D3" transform="translate(162,355)"/>
<path d="M0 0 C0.33 0 0.66 0 1 0 C1.125 2.875 1.125 2.875 1 6 C0.34 6.66 -0.32 7.32 -1 8 C-3.125 7.625 -3.125 7.625 -5 7 C-4.67 5.35 -4.34 3.7 -4 2 C-2.68 2.66 -1.36 3.32 0 4 C0 2.68 0 1.36 0 0 Z " fill="#DADADA" transform="translate(308,351)"/>
<path d="M0 0 C0.66 0 1.32 0 2 0 C2 0.66 2 1.32 2 2 C4.64 1.67 7.28 1.34 10 1 C10 1.99 10 2.98 10 4 C6.7 4 3.4 4 0 4 C0 2.68 0 1.36 0 0 Z " fill="#E9E9E9" transform="translate(198,337)"/>
<path d="M0 0 C1.32 0.66 2.64 1.32 4 2 C3.67 2.66 3.34 3.32 3 4 C3.66 4.33 4.32 4.66 5 5 C5 5.66 5 6.32 5 7 C-0.75 5.25 -0.75 5.25 -3 3 C-2.01 3 -1.02 3 0 3 C0 2.01 0 1.02 0 0 Z " fill="#2C2C2C" transform="translate(169,321)"/>
<path d="M0 0 C0.66 1.32 1.32 2.64 2 4 C-0.64 4.99 -3.28 5.98 -6 7 C-5 3 -5 3 -2.4375 1.25 C-1.2309375 0.63125 -1.2309375 0.63125 0 0 Z " fill="#E4E4E4" transform="translate(226,184)"/>
<path d="M0 0 C1.65 0 3.3 0 5 0 C5 0.66 5 1.32 5 2 C5.66 2 6.32 2 7 2 C6.67 2.99 6.34 3.98 6 5 C4.68 5 3.36 5 2 5 C1.34 3.35 0.68 1.7 0 0 Z " fill="#F6F6F6" transform="translate(329,344)"/>
<path d="M0 0 C1.98 0 3.96 0 6 0 C5.67 0.99 5.34 1.98 5 3 C4.34 3 3.68 3 3 3 C3 3.99 3 4.98 3 6 C2.34 6 1.68 6 1 6 C0.67 4.02 0.34 2.04 0 0 Z " fill="#1D1D1D" transform="translate(259,312)"/>
<path d="M0 0 C0.99 1.485 0.99 1.485 2 3 C3.98 2.67 5.96 2.34 8 2 C8 2.66 8 3.32 8 4 C2.25 7 2.25 7 0 7 C0 4.69 0 2.38 0 0 Z " fill="#C8C8C8" transform="translate(249,240)"/>
<path d="M0 0 C6.93 0.495 6.93 0.495 14 1 C14 1.33 14 1.66 14 2 C7.565 2.495 7.565 2.495 1 3 C0.67 2.01 0.34 1.02 0 0 Z " fill="#898989" transform="translate(229,234)"/>
<path d="M0 0 C-1 3 -1 3 -2.8125 3.9375 C-5 4 -5 4 -7.25 2.0625 C-7.8275 1.381875 -8.405 0.70125 -9 0 C-5.52176885 -1.15941038 -3.54104422 -0.70820884 0 0 Z " fill="#222222" transform="translate(246,175)"/>
<path d="M0 0 C0.99 0.66 1.98 1.32 3 2 C2.625 4.4375 2.625 4.4375 2 7 C1.01 7.495 1.01 7.495 0 8 C-0.66 7.34 -1.32 6.68 -2 6 C-1.34 4.02 -0.68 2.04 0 0 Z " fill="#4E4E4E" transform="translate(265,160)"/>
<path d="M0 0 C0.99 0 1.98 0 3 0 C2.67 1.65 2.34 3.3 2 5 C0.02 5 -1.96 5 -4 5 C-4.33 4.34 -4.66 3.68 -5 3 C-3.02 3 -1.04 3 1 3 C0.67 2.01 0.34 1.02 0 0 Z " fill="#555555" transform="translate(260,356)"/>
<path d="M0 0 C1.32 0.33 2.64 0.66 4 1 C3.67 2.98 3.34 4.96 3 7 C2.01 6.67 1.02 6.34 0 6 C0 4.02 0 2.04 0 0 Z " fill="#F9F9F9" transform="translate(232,315)"/>
<path d="M0 0 C2.92879371 0.62759865 5.36095629 1.58622659 8 3 C7.05125 3.103125 6.1025 3.20625 5.125 3.3125 C1.70892499 3.68539295 1.70892499 3.68539295 0 7 C-1.125 2.25 -1.125 2.25 0 0 Z " fill="#3D3D3D" transform="translate(167,312)"/>
<path d="M0 0 C0.33 0.99 0.66 1.98 1 3 C-0.65 4.32 -2.3 5.64 -4 7 C-4.6875 5.1875 -4.6875 5.1875 -5 3 C-3.38441968 0.84589291 -2.74502455 0 0 0 Z " fill="#141414" transform="translate(237,281)"/>
<path d="M0 0 C0.66 0.33 1.32 0.66 2 1 C1.52003578 5.99162787 1.11223313 7.85035583 -2 12 C-1.34 8.04 -0.68 4.08 0 0 Z " fill="#111111" transform="translate(248,235)"/>
<path d="M0 0 C0.99 0 1.98 0 3 0 C2.67 1.65 2.34 3.3 2 5 C0.68 5.33 -0.64 5.66 -2 6 C-1.125 1.125 -1.125 1.125 0 0 Z " fill="#EEEEEE" transform="translate(210,236)"/>
<path d="M0 0 C2.61577816 5.23155631 1.6207859 6.59738034 0 12 C-0.66 12 -1.32 12 -2 12 C-1.34 8.04 -0.68 4.08 0 0 Z " fill="#515151" transform="translate(248,210)"/>
<path d="M0 0 C0.2475 0.639375 0.495 1.27875 0.75 1.9375 C1.81562433 4.18741541 1.81562433 4.18741541 4.125 4.75 C4.74375 4.8325 5.3625 4.915 6 5 C3.35261084 6.4606285 2.10551666 7 -1 7 C-0.67 4.69 -0.34 2.38 0 0 Z " fill="#D9D9D9" transform="translate(260,198)"/>
<path d="M0 0 C0.33 0.99 0.66 1.98 1 3 C1.99 3.33 2.98 3.66 4 4 C4 4.66 4 5.32 4 6 C2.68 6 1.36 6 0 6 C-0.33 6.66 -0.66 7.32 -1 8 C-1.625 5.6875 -1.625 5.6875 -2 3 C-1.34 2.01 -0.68 1.02 0 0 Z " fill="#0F0F0F" transform="translate(269,158)"/>
<path d="M0 0 C0.66 0.33 1.32 0.66 2 1 C1.67 3.31 1.34 5.62 1 8 C-0.32 6.68 -1.64 5.36 -3 4 C-2.01 2.68 -1.02 1.36 0 0 Z " fill="#CCCCCC" transform="translate(247,350)"/>
<path d="M0 0 C0.33 0 0.66 0 1 0 C0.67 3.3 0.34 6.6 0 10 C-0.66 9.01 -1.32 8.02 -2 7 C-2.66 6.67 -3.32 6.34 -4 6 C-2.69593116 3.98079663 -1.36176581 1.98075027 0 0 Z " fill="#444444" transform="translate(292,316)"/>
<path d="M0 0 C1.32 0.66 2.64 1.32 4 2 C2.35 3.32 0.7 4.64 -1 6 C-1.66 5.67 -2.32 5.34 -3 5 C-3 4.01 -3 3.02 -3 2 C-2.01 2 -1.02 2 0 2 C0 1.34 0 0.68 0 0 Z " fill="#DDDDDD" transform="translate(300,186)"/>
<path d="M0 0 C0.144375 0.598125 0.28875 1.19625 0.4375 1.8125 C0.8872439 3.56150404 1.42892341 5.28677023 2 7 C0.02 7.99 0.02 7.99 -2 9 C-3 6 -3 6 -1.5625 2.8125 C-1.046875 1.884375 -0.53125 0.95625 0 0 Z " fill="#D7D7D7" transform="translate(282,141)"/>
<path d="M0 0 C0.66 0.33 1.32 0.66 2 1 C1.8125 3.875 1.8125 3.875 1 7 C-1.5625 8.375 -1.5625 8.375 -4 9 C-4 8.01 -4 7.02 -4 6 C-3.34 6 -2.68 6 -2 6 C-1.34 4.02 -0.68 2.04 0 0 Z " fill="#DBDBDB" transform="translate(177,351)"/>
<path d="M0 0 C0.33 1.32 0.66 2.64 1 4 C-0.98 4.33 -2.96 4.66 -5 5 C-5.33 4.01 -5.66 3.02 -6 2 C-2.25 0 -2.25 0 0 0 Z " fill="#E5E5E5" transform="translate(263,350)"/>
<path d="M0 0 C0.33 0 0.66 0 1 0 C1 2.64 1 5.28 1 8 C0.01 8 -0.98 8 -2 8 C-2.33 8.66 -2.66 9.32 -3 10 C-3 8.68 -3 7.36 -3 6 C-2.34 6 -1.68 6 -1 6 C-0.67 4.02 -0.34 2.04 0 0 Z " fill="#111111" transform="translate(244,256)"/>
<path d="M0 0 C1.32 0.33 2.64 0.66 4 1 C4.33 2.32 4.66 3.64 5 5 C3.35 4.67 1.7 4.34 0 4 C0 2.68 0 1.36 0 0 Z " fill="#212121" transform="translate(255,232)"/>
<path d="M0 0 C0.33 1.65 0.66 3.3 1 5 C-0.65 5 -2.3 5 -4 5 C-4 3.68 -4 2.36 -4 1 C-2 0 -2 0 0 0 Z " fill="#161616" transform="translate(263,208)"/>
<path d="M0 0 C2.375 -0.1875 2.375 -0.1875 5 0 C5.66 0.99 6.32 1.98 7 3 C6.67 3.99 6.34 4.98 6 6 C6 5.34 6 4.68 6 4 C5.38125 3.896875 4.7625 3.79375 4.125 3.6875 C2 3 2 3 0 0 Z " fill="#161616" transform="translate(307,176)"/>
<path d="M0 0 C0.33 1.32 0.66 2.64 1 4 C-1.31 3.67 -3.62 3.34 -6 3 C-6 2.34 -6 1.68 -6 1 C-4.02 0.67 -2.04 0.34 0 0 Z " fill="#ECECEC" transform="translate(303,338)"/>
<path d="M0 0 C4.875 1.75 4.875 1.75 6 4 C4.02 4 2.04 4 0 4 C0 2.68 0 1.36 0 0 Z " fill="#323232" transform="translate(297,335)"/>
<path d="M0 0 C0.99 0.99 1.98 1.98 3 3 C2.67 3.99 2.34 4.98 2 6 C1.01 5.67 0.02 5.34 -1 5 C-1.33 4.01 -1.66 3.02 -2 2 C-1.34 1.34 -0.68 0.68 0 0 Z " fill="#181818" transform="translate(238,328)"/>
<path d="M0 0 C1.42944945 2.35438733 2.08661261 3.48032433 1.625 6.25 C1.41875 6.8275 1.2125 7.405 1 8 C-0.32 7.34 -1.64 6.68 -3 6 C-2.34 6 -1.68 6 -1 6 C-0.67 4.02 -0.34 2.04 0 0 Z " fill="#777777" transform="translate(250,218)"/>
<path d="M0 0 C3.465 1.98 3.465 1.98 7 4 C6.67 4.66 6.34 5.32 6 6 C4.125 5.8125 4.125 5.8125 2 5 C0.75 2.4375 0.75 2.4375 0 0 Z " fill="#E3E3E3" transform="translate(222,217)"/>
<path d="M0 0 C0.33 0.99 0.66 1.98 1 3 C-1.375 4.5625 -1.375 4.5625 -4 6 C-4.66 5.67 -5.32 5.34 -6 5 C-6 4.34 -6 3.68 -6 3 C-4.02 2.67 -2.04 2.34 0 2 C0 1.34 0 0.68 0 0 Z " fill="#E5E5E5" transform="translate(311,180)"/>
<path d="M0 0 C1.32 0.33 2.64 0.66 4 1 C3.38125 1.2475 2.7625 1.495 2.125 1.75 C-0.35068687 3.20628639 -0.95125002 4.37812506 -2 7 C-2.33 6.34 -2.66 5.68 -3 5 C-1.5625 2.375 -1.5625 2.375 0 0 Z " fill="#2F2F2F" transform="translate(280,125)"/>
<path d="M0 0 C0.66 0.33 1.32 0.66 2 1 C2 3.31 2 5.62 2 8 C1.34 7.67 0.68 7.34 0 7 C0.33 6.34 0.66 5.68 1 5 C0.34 5 -0.32 5 -1 5 C-0.67 3.35 -0.34 1.7 0 0 Z " fill="#2E2E2E" transform="translate(248,290)"/>
<path d="M0 0 C1.65 1.65 3.3 3.3 5 5 C4.01 5.66 3.02 6.32 2 7 C1.67 6.01 1.34 5.02 1 4 C0.34 4 -0.32 4 -1 4 C-0.67 2.68 -0.34 1.36 0 0 Z " fill="#232323" transform="translate(215,184)"/>
<path d="M0 0 C0.99 0.33 1.98 0.66 3 1 C1.35 2.65 -0.3 4.3 -2 6 C-2.99 5.67 -3.98 5.34 -5 5 C-3.35 3.35 -1.7 1.7 0 0 Z " fill="#262626" transform="translate(221,179)"/>
<path d="M0 0 C2.31 0.66 4.62 1.32 7 2 C7 2.99 7 3.98 7 5 C6.01 5 5.02 5 4 5 C4 4.34 4 3.68 4 3 C2.68 2.34 1.36 1.68 0 1 C0 0.67 0 0.34 0 0 Z " fill="#E1E1E1" transform="translate(302,176)"/>
<path d="M0 0 C1.98 0.66 3.96 1.32 6 2 C4.35 3.32 2.7 4.64 1 6 C0.4465236 3.92446352 0 2.15634036 0 0 Z " fill="#171717" transform="translate(298,169)"/>
</svg>
